<svg width="198" height="54" viewBox="0 0 198 54" version="1.1" xmlns="http://www.w3.org/2000/svg" xmlns:xlink="http://www.w3.org/1999/xlink">
<title>2</title>
<desc>Created using Figma</desc>
<g id="Canvas" transform="translate(72 242)">
<g id="2">
<mask id="mask0_alpha" mask-type="alpha">
<g id="3GiR">
<use xlink:href="#path0_fill" transform="translate(-72 -242)"/>
<use xlink:href="#path1_fill" transform="translate(-72 -242)"/>
<use xlink:href="#path2_fill" transform="translate(-72 -242)"/>
<use xlink:href="#path3_fill" transform="translate(-72 -242)"/>
</g>
</mask>
<g id="Ellipse" mask="url(#mask0_alpha)">
<use xlink:href="#path4_fill" transform="translate(51.6027 -242.136)" fill="#FF2F64"/>
</g>
<g id="Group" mask="url(#mask0_alpha)">
<g id="Polygon">
<use xlink:href="#path5_fill" transform="translate(-125.754 -248.061)" fill="#FF2F64"/>
</g>
<g id="Polygon">
<use xlink:href="#path5_fill" transform="matrix(-1 1.36151e-16 -1.10154e-16 -1 -13.5579 -182.64)" fill="#3080ED"/>
</g>
<g id="Polygon">
<use xlink:href="#path5_fill" transform="matrix(-1 1.36151e-16 -1.10154e-16 -1 53.9163 -182.64)" fill="#3080ED"/>
</g>
<g id="Polygon">
<use xlink:href="#path5_fill" transform="matrix(-1 1.36151e-16 -1.10154e-16 -1 121.391 -182.64)" fill="#3080ED"/>
</g>
<g id="Polygon 2">
<use xlink:href="#path5_fill" transform="translate(-58.2792 -248.061)" fill="#FF2F64"/>
</g>
<g id="Polygon 2.1">
<use xlink:href="#path5_fill" transform="translate(9.19499 -248.061)" fill="#FF2F64"/>
</g>
<g id="Polygon 2.2">
<use xlink:href="#path5_fill" transform="translate(76.6694 -248.061)" fill="#FF2F64"/>
</g>
<g id="Polygon">
<use xlink:href="#path5_fill" transform="matrix(-1 1.36151e-16 -1.10154e-16 -1 188.865 -182.64)" fill="#3080ED"/>
</g>
</g>
</g>
</g>
<defs>
<path id="path0_fill" d="M 22.1422 24.7765C 27.0311 25.2471 30.757 26.7529 33.3201 29.2941C 35.8832 31.7882 37.1647 34.9882 37.1647 38.8941C 37.1647 41.7176 36.4528 44.2824 35.0288 46.5882C 33.6049 48.8471 31.469 50.6588 28.6211 52.0235C 25.8207 53.3412 22.3795 54 18.2976 54C 14.7377 54 11.3203 53.4824 8.04524 52.4471C 4.77019 51.3647 2.08844 49.8824 0 48L 3.27505 42.4235C 4.98378 44.0235 7.16715 45.3176 9.82516 46.3059C 12.4832 47.2471 15.3073 47.7176 18.2976 47.7176C 21.9998 47.7176 24.8714 46.9412 26.9124 45.3882C 29.0008 43.8353 30.0451 41.6941 30.0451 38.9647C 30.0451 36.2353 29.0246 34.1176 26.9836 32.6118C 24.9426 31.1059 21.8574 30.3529 17.728 30.3529L 13.741 30.3529L 13.741 25.4118L 26.2716 10.1647L 2.2783 10.1647L 2.2783 4.02353L 35.1712 4.02353L 35.1712 8.82353L 22.1422 24.7765Z"/>
<path id="path1_fill" d="M 93.7851 28.4471L 100.62 28.4471L 100.62 47.7176C 98.1519 49.7412 95.2803 51.2941 92.0052 52.3765C 88.7301 53.4588 85.3127 54 81.7529 54C 76.7216 54 72.1887 52.9176 68.1543 50.7529C 64.1198 48.5412 60.9397 45.5294 58.6139 41.7176C 56.3356 37.8588 55.1964 33.5294 55.1964 28.7294C 55.1964 23.9294 56.3356 19.6 58.6139 15.7412C 60.9397 11.8824 64.1198 8.87059 68.1543 6.70588C 72.2362 4.54118 76.8165 3.45882 81.8952 3.45882C 85.8823 3.45882 89.4896 4.11765 92.7172 5.43529C 95.9922 6.70588 98.7689 8.58823 101.047 11.0824L 96.633 15.4588C 92.646 11.6471 87.8283 9.74118 82.18 9.74118C 78.3829 9.74118 74.9654 10.5647 71.9277 12.2118C 68.9374 13.8118 66.5879 16.0706 64.8792 18.9882C 63.1705 21.8588 62.3161 25.1059 62.3161 28.7294C 62.3161 32.3059 63.1705 35.5529 64.8792 38.4706C 66.5879 41.3412 68.9374 43.6 71.9277 45.2471C 74.9654 46.8941 78.3591 47.7176 82.1088 47.7176C 86.5705 47.7176 90.4626 46.6588 93.7851 44.5412L 93.7851 28.4471Z"/>
<path id="path2_fill" d="M 124.646 16.0235L 131.481 16.0235L 131.481 53.4353L 124.646 53.4353L 124.646 16.0235ZM 128.064 8.82353C 126.735 8.82353 125.619 8.4 124.717 7.55294C 123.863 6.70588 123.436 5.67059 123.436 4.44706C 123.436 3.22353 123.863 2.18824 124.717 1.34118C 125.619 0.447059 126.735 0 128.064 0C 129.393 0 130.484 0.423529 131.339 1.27059C 132.24 2.07059 132.691 3.08235 132.691 4.30588C 132.691 5.57647 132.24 6.65882 131.339 7.55294C 130.484 8.4 129.393 8.82353 128.064 8.82353Z"/>
<path id="path3_fill" d="M 190.24 53.4353L 179.489 38.2588C 178.16 38.3529 177.116 38.4 176.356 38.4L 164.039 38.4L 164.039 53.4353L 156.919 53.4353L 156.919 4.02353L 176.356 4.02353C 182.811 4.02353 187.89 5.55294 191.592 8.61176C 195.295 11.6706 197.146 15.8824 197.146 21.2471C 197.146 25.0588 196.196 28.3059 194.298 30.9882C 192.399 33.6706 189.694 35.6235 186.181 36.8471L 198 53.4353L 190.24 53.4353ZM 176.143 32.4C 180.652 32.4 184.093 31.4353 186.466 29.5059C 188.839 27.5765 190.026 24.8235 190.026 21.2471C 190.026 17.6706 188.839 14.9412 186.466 13.0588C 184.093 11.1294 180.652 10.1647 176.143 10.1647L 164.039 10.1647L 164.039 32.4L 176.143 32.4Z"/>
<path id="path4_fill" d="M 8.8996 4.41176C 8.8996 6.84831 6.90736 8.82353 4.4498 8.82353C 1.99224 8.82353 0 6.84831 0 4.41176C 0 1.97521 1.99224 0 4.4498 0C 6.90736 0 8.8996 1.97521 8.8996 4.41176Z"/>
<path id="path5_fill" d="M 39.2293 0L 73.2028 65.4202L 5.25572 65.4202L 39.2293 0Z"/>
</defs>
</svg>
