<svg width="436" height="311" viewBox="0 0 436 311" version="1.1" xmlns="http://www.w3.org/2000/svg" xmlns:xlink="http://www.w3.org/1999/xlink">
<title>illustration?</title>
<desc>Created using Figma</desc>
<g id="Canvas" transform="translate(-264 -2456)">
<g id="illustration?">
<g id="Ellipse 6.2">
<use xlink:href="#path0_fill" transform="translate(598.017 2662.08)" fill="url(#paint0_linear)"/>
</g>
<g id="Ellipse 6.3">
<use xlink:href="#path1_fill" transform="translate(664.446 2499.09)" fill="url(#paint1_linear)"/>
</g>
<g id="Ellipse 6">
<use xlink:href="#path2_fill" transform="translate(503.519 2476.61)" fill="url(#paint2_linear)"/>
</g>
<g id="Ellipse">
<use xlink:href="#path3_fill" transform="translate(326.687 2706.11)" fill="url(#paint3_linear)"/>
</g>
<g id="Ellipse 3" filter="url(#filter0_d)">
<use xlink:href="#path4_fill" transform="translate(620.472 2503.77)" fill="url(#paint4_linear)"/>
</g>
<g id="Ellipse 4">
<use xlink:href="#path5_fill" transform="translate(314.524 2456)" fill="url(#paint5_linear)"/>
</g>
<g id="Ellipse 6" filter="url(#filter1_d)">
<use xlink:href="#path1_fill" transform="translate(336.043 2586.21)" fill="url(#paint6_linear)"/>
</g>
<g id="Ellipse 6.1">
<use xlink:href="#path1_fill" transform="translate(432.412 2729.53)" fill="url(#paint7_linear)"/>
</g>
<g id="Ellipse 6.4" filter="url(#filter2_d)">
<use xlink:href="#path1_fill" transform="translate(507.262 2469.11)" fill="url(#paint8_linear)"/>
</g>
<g id="Ellipse 5">
<use xlink:href="#path6_fill" transform="translate(343.528 2489.72)" fill="url(#paint9_linear)"/>
</g>
<g id="Ellipse 2" filter="url(#filter3_d)">
<use xlink:href="#path7_fill" transform="translate(468.901 2619.93)" fill="url(#paint10_linear)"/>
</g>
<g id="mail">
<g id="Rectangle 3" filter="url(#filter4_d)">
<use xlink:href="#path8_fill" transform="matrix(0.965848 -0.259109 0.258529 0.966003 327.622 2604.47)" fill="#FFDE7A"/>
</g>
<mask id="mask0_alpha" mask-type="alpha">
<g id="Rectangle 3.1">
<use xlink:href="#path8_fill" transform="matrix(0.965848 -0.259109 0.258529 0.966003 327.622 2604.47)" fill="#FFDE7A"/>
</g>
</mask>
<g id="Rectangle 4" mask="url(#mask0_alpha)" filter="url(#filter5_d)">
<use xlink:href="#path9_fill" transform="matrix(0.4997 -0.866545 0.865505 0.5003 289.541 2572.05)" fill="#FCBE00"/>
</g>
</g>
<g id="circles path">
<g id="Ellipse 7">
<use xlink:href="#path10_fill" transform="translate(290.197 2525.32)" fill="#27AE60"/>
</g>
<g id="Ellipse 7.6">
<use xlink:href="#path11_fill" transform="translate(302.361 2517.83)" fill="#27AE60"/>
</g>
<g id="Ellipse 7.1">
<use xlink:href="#path12_fill" transform="translate(276.163 2536.56)" fill="#27AE60"/>
</g>
<g id="Ellipse 7.2">
<use xlink:href="#path13_fill" transform="translate(264 2557.17)" fill="#27AE60"/>
</g>
<g id="Ellipse 7.3">
<use xlink:href="#path1_fill" transform="translate(264 2585.27)" fill="#27AE60"/>
</g>
<g id="Ellipse 7.4">
<use xlink:href="#path14_fill" transform="translate(277.099 2610.56)" fill="#27AE60"/>
</g>
<g id="Ellipse 7.5">
<use xlink:href="#path15_fill" transform="translate(307.974 2626.49)" fill="#27AE60"/>
</g>
</g>
<g id="chat">
<g id="Rectangle 3" filter="url(#filter6_d)">
<use xlink:href="#path16_fill" transform="matrix(-1 0 0 1 649.476 2554.36)" fill="#2F80ED"/>
</g>
<g id="Rectangle 4">
<use xlink:href="#path17_fill" transform="matrix(-1 0 0 1 636.586 2572.12)" fill="#F2F2F2"/>
</g>
<g id="Rectangle 4.1">
<use xlink:href="#path17_fill" transform="matrix(-1 0 0 1 636.586 2583.22)" fill="#F2F2F2"/>
</g>
<g id="Rectangle 4.2">
<use xlink:href="#path17_fill" transform="matrix(-1 0 0 1 636.586 2594.33)" fill="#F2F2F2"/>
</g>
</g>
<g id="chat">
<g id="Rectangle 3" filter="url(#filter7_d)">
<use xlink:href="#path18_fill" transform="translate(545.622 2511.27)" fill="#27AE60"/>
</g>
<g id="Rectangle 4">
<use xlink:href="#path19_fill" transform="translate(562.464 2533.75)" fill="#F2F2F2"/>
</g>
<g id="Rectangle 4.1">
<use xlink:href="#path19_fill" transform="translate(562.464 2547.8)" fill="#F2F2F2"/>
</g>
<g id="Rectangle 4.2">
<use xlink:href="#path19_fill" transform="translate(562.464 2561.85)" fill="#F2F2F2"/>
</g>
</g>
</g>
</g>
<defs>
<filter id="filter0_d" filterUnits="userSpaceOnUse" x="612" y="2495" width="66" height="66" color-interpolation-filters="sRGB">
<feFlood flood-opacity="0" result="BackgroundImageFix"/>
<feColorMatrix in="SourceAlpha" type="matrix" values="0 0 0 0 0 0 0 0 0 0 0 0 0 0 0 0 0 0 255 0"/>
<feOffset dx="2" dy="2"/>
<feGaussianBlur stdDeviation="5"/>
<feColorMatrix type="matrix" values="0 0 0 0 0 0 0 0 0 0 0 0 0 0 0 0 0 0 0.16 0"/>
<feBlend mode="normal" in2="BackgroundImageFix" result="effect1_dropShadow"/>
<feBlend mode="normal" in="SourceGraphic" in2="effect1_dropShadow" result="shape"/>
</filter>
<filter id="filter1_d" filterUnits="userSpaceOnUse" x="328" y="2578" width="36" height="36" color-interpolation-filters="sRGB">
<feFlood flood-opacity="0" result="BackgroundImageFix"/>
<feColorMatrix in="SourceAlpha" type="matrix" values="0 0 0 0 0 0 0 0 0 0 0 0 0 0 0 0 0 0 255 0"/>
<feOffset dx="2" dy="2"/>
<feGaussianBlur stdDeviation="5"/>
<feColorMatrix type="matrix" values="0 0 0 0 0 0 0 0 0 0 0 0 0 0 0 0 0 0 0.16 0"/>
<feBlend mode="normal" in2="BackgroundImageFix" result="effect1_dropShadow"/>
<feBlend mode="normal" in="SourceGraphic" in2="effect1_dropShadow" result="shape"/>
</filter>
<filter id="filter2_d" filterUnits="userSpaceOnUse" x="501" y="2459" width="32" height="32" color-interpolation-filters="sRGB">
<feFlood flood-opacity="0" result="BackgroundImageFix"/>
<feColorMatrix in="SourceAlpha" type="matrix" values="0 0 0 0 0 0 0 0 0 0 0 0 0 0 0 0 0 0 255 0"/>
<feOffset dx="2" dy="-2"/>
<feGaussianBlur stdDeviation="4"/>
<feColorMatrix type="matrix" values="0 0 0 0 0 0 0 0 0 0 0 0 0 0 0 0 0 0 0.16 0"/>
<feBlend mode="normal" in2="BackgroundImageFix" result="effect1_dropShadow"/>
<feBlend mode="normal" in="SourceGraphic" in2="effect1_dropShadow" result="shape"/>
</filter>
<filter id="filter3_d" filterUnits="userSpaceOnUse" x="462" y="2609" width="156" height="156" color-interpolation-filters="sRGB">
<feFlood flood-opacity="0" result="BackgroundImageFix"/>
<feColorMatrix in="SourceAlpha" type="matrix" values="0 0 0 0 0 0 0 0 0 0 0 0 0 0 0 0 0 0 255 0"/>
<feOffset dx="2" dy="-2"/>
<feGaussianBlur stdDeviation="4"/>
<feColorMatrix type="matrix" values="0 0 0 0 0 0 0 0 0 0 0 0 0 0 0 0 0 0 0.16 0"/>
<feBlend mode="normal" in2="BackgroundImageFix" result="effect1_dropShadow"/>
<feBlend mode="normal" in="SourceGraphic" in2="effect1_dropShadow" result="shape"/>
</filter>
<filter id="filter4_d" filterUnits="userSpaceOnUse" x="314" y="2551" width="209" height="155" color-interpolation-filters="sRGB">
<feFlood flood-opacity="0" result="BackgroundImageFix"/>
<feColorMatrix in="SourceAlpha" type="matrix" values="0 0 0 0 0 0 0 0 0 0 0 0 0 0 0 0 0 0 255 0"/>
<feOffset dx="-2" dy="2"/>
<feGaussianBlur stdDeviation="6.5"/>
<feColorMatrix type="matrix" values="0 0 0 0 0 0 0 0 0 0 0 0 0 0 0 0 0 0 0.17 0"/>
<feBlend mode="normal" in2="BackgroundImageFix" result="effect1_dropShadow"/>
<feBlend mode="normal" in="SourceGraphic" in2="effect1_dropShadow" result="shape"/>
</filter>
<filter id="filter5_d" filterUnits="userSpaceOnUse" x="288" y="2439" width="218" height="216" color-interpolation-filters="sRGB">
<feFlood flood-opacity="0" result="BackgroundImageFix"/>
<feColorMatrix in="SourceAlpha" type="matrix" values="0 0 0 0 0 0 0 0 0 0 0 0 0 0 0 0 0 0 255 0"/>
<feOffset dx="0" dy="1"/>
<feGaussianBlur stdDeviation="1.5"/>
<feColorMatrix type="matrix" values="0 0 0 0 0 0 0 0 0 0 0 0 0 0 0 0 0 0 0.22 0"/>
<feBlend mode="normal" in2="BackgroundImageFix" result="effect1_dropShadow"/>
<feBlend mode="normal" in="SourceGraphic" in2="effect1_dropShadow" result="shape"/>
</filter>
<filter id="filter6_d" filterUnits="userSpaceOnUse" x="589" y="2554" width="63" height="65" color-interpolation-filters="sRGB">
<feFlood flood-opacity="0" result="BackgroundImageFix"/>
<feColorMatrix in="SourceAlpha" type="matrix" values="0 0 0 0 0 0 0 0 0 0 0 0 0 0 0 0 0 0 255 0"/>
<feOffset dx="0" dy="2"/>
<feGaussianBlur stdDeviation="1"/>
<feColorMatrix type="matrix" values="0 0 0 0 0 0 0 0 0 0 0 0 0 0 0 0 0 0 0.15 0"/>
<feBlend mode="normal" in2="BackgroundImageFix" result="effect1_dropShadow"/>
<feBlend mode="normal" in="SourceGraphic" in2="effect1_dropShadow" result="shape"/>
</filter>
<filter id="filter7_d" filterUnits="userSpaceOnUse" x="539" y="2509" width="85" height="85" color-interpolation-filters="sRGB">
<feFlood flood-opacity="0" result="BackgroundImageFix"/>
<feColorMatrix in="SourceAlpha" type="matrix" values="0 0 0 0 0 0 0 0 0 0 0 0 0 0 0 0 0 0 255 0"/>
<feOffset dx="-2" dy="2"/>
<feGaussianBlur stdDeviation="2"/>
<feColorMatrix type="matrix" values="0 0 0 0 0 0 0 0 0 0 0 0 0 0 0 0 0 0 0.13 0"/>
<feBlend mode="normal" in2="BackgroundImageFix" result="effect1_dropShadow"/>
<feBlend mode="normal" in="SourceGraphic" in2="effect1_dropShadow" result="shape"/>
</filter>
<linearGradient id="paint0_linear" x1="0" y1="0" x2="1" y2="0" gradientUnits="userSpaceOnUse" gradientTransform="matrix(1.37497e-15 22.4819 -22.4549 1.37662e-15 22.4549 -1.37662e-15)">
<stop offset="0" stop-color="#FF1212"/>
<stop offset="1" stop-color="#F2C94C" stop-opacity="0.51"/>
</linearGradient>
<linearGradient id="paint1_linear" x1="0" y1="0" x2="1" y2="0" gradientUnits="userSpaceOnUse" gradientTransform="matrix(9.16646e-16 14.988 -14.97 9.17747e-16 14.97 -9.17747e-16)">
<stop offset="0" stop-color="#F2C94C" stop-opacity="0.77"/>
<stop offset="1" stop-color="#ACFF42" stop-opacity="0.64"/>
</linearGradient>
<linearGradient id="paint2_linear" x1="0" y1="0" x2="1" y2="0" gradientUnits="userSpaceOnUse" gradientTransform="matrix(-8.52413e-16 164.399 -164.202 1.00665e-14 180.341 32.3178)">
<stop offset="0" stop-color="#E67240"/>
<stop offset="0.563536" stop-color="#EBCF6C" stop-opacity="0.44"/>
<stop offset="1" stop-color="#47FFDE" stop-opacity="0.87"/>
</linearGradient>
<linearGradient id="paint3_linear" x1="0" y1="0" x2="1" y2="0" gradientUnits="userSpaceOnUse" gradientTransform="matrix(3.72387e-15 60.8886 -60.8154 3.72835e-15 60.8154 -3.72835e-15)">
<stop offset="0" stop-color="#26D4C9"/>
<stop offset="1" stop-color="#EDDB9A" stop-opacity="0.98"/>
</linearGradient>
<linearGradient id="paint4_linear" x1="0" y1="0" x2="1" y2="0" gradientUnits="userSpaceOnUse" gradientTransform="matrix(2.74994e-15 44.9639 -44.9099 2.75324e-15 44.9099 -2.75324e-15)">
<stop offset="0" stop-color="#219653"/>
<stop offset="1" stop-color="#AEFCCF"/>
</linearGradient>
<linearGradient id="paint5_linear" x1="0" y1="0" x2="1" y2="0" gradientUnits="userSpaceOnUse" gradientTransform="matrix(5.15613e-15 84.3072 -84.206 5.16233e-15 84.206 -5.16233e-15)">
<stop offset="0" stop-color="#FF1212"/>
<stop offset="1" stop-color="#F2C94C" stop-opacity="0.51"/>
</linearGradient>
<linearGradient id="paint6_linear" x1="0" y1="0" x2="1" y2="0" gradientUnits="userSpaceOnUse" gradientTransform="matrix(9.16646e-16 14.988 -14.97 9.17747e-16 14.97 -9.17747e-16)">
<stop offset="0" stop-color="#219653"/>
<stop offset="1" stop-color="#AEFCCF"/>
</linearGradient>
<linearGradient id="paint7_linear" x1="0" y1="0" x2="1" y2="0" gradientUnits="userSpaceOnUse" gradientTransform="matrix(9.16646e-16 14.988 -14.97 9.17747e-16 14.97 -9.17747e-16)">
<stop offset="0" stop-color="#F2C94C" stop-opacity="0.77"/>
<stop offset="1" stop-color="#ACFF42" stop-opacity="0.64"/>
</linearGradient>
<linearGradient id="paint8_linear" x1="0" y1="0" x2="1" y2="0" gradientUnits="userSpaceOnUse" gradientTransform="matrix(7.48498 10.2789 -10.2666 7.49398 5.13328 3.74699)">
<stop offset="0" stop-color="#2F80ED"/>
<stop offset="0.5376" stop-color="#E249E6" stop-opacity="0.8"/>
<stop offset="1" stop-color="#FF0000" stop-opacity="0.54"/>
</linearGradient>
<linearGradient id="paint9_linear" x1="0" y1="0" x2="1" y2="0" gradientUnits="userSpaceOnUse" gradientTransform="matrix(-3.27469 212.173 1.67833e-05 2.59604e-07 103.854 -4.97332e-08)">
<stop offset="0" stop-color="#AB78FF"/>
<stop offset="1" stop-color="#EADEFF" stop-opacity="0.46"/>
<stop offset="1" stop-color="#EADEFF" stop-opacity="0.46"/>
</linearGradient>
<linearGradient id="paint10_linear" x1="0" y1="0" x2="1" y2="0" gradientUnits="userSpaceOnUse" gradientTransform="matrix(69.2361 95.0798 -94.9657 69.3193 47.4828 34.6596)">
<stop offset="0" stop-color="#2F80ED"/>
<stop offset="0.5376" stop-color="#E249E6" stop-opacity="0.8"/>
<stop offset="1" stop-color="#FF0000" stop-opacity="0.54"/>
</linearGradient>
<path id="path0_fill" d="M 22.4549 11.241C 22.4549 17.4492 17.4282 22.4819 11.2275 22.4819C 5.02671 22.4819 0 17.4492 0 11.241C 0 5.03275 5.02671 0 11.2275 0C 17.4282 0 22.4549 5.03275 22.4549 11.241Z"/>
<path id="path1_fill" d="M 14.97 7.49398C 14.97 11.6328 11.6188 14.988 7.48498 14.988C 3.35114 14.988 0 11.6328 0 7.49398C 0 3.35517 3.35114 0 7.48498 0C 11.6188 0 14.97 3.35517 14.97 7.49398Z"/>
<path id="path2_fill" d="M 196.481 98.3584C 196.481 152.68 152.497 196.717 98.2403 196.717C 43.9837 196.717 0 152.68 0 98.3584C 0 44.0366 43.9837 0 98.2403 0C 152.497 0 196.481 44.0366 196.481 98.3584Z"/>
<path id="path3_fill" d="M 60.8154 30.4443C 60.8154 47.2582 47.2014 60.8886 30.4077 60.8886C 13.614 60.8886 0 47.2582 0 30.4443C 0 13.6304 13.614 0 30.4077 0C 47.2014 0 60.8154 13.6304 60.8154 30.4443Z"/>
<path id="path4_fill" d="M 44.9099 22.4819C 44.9099 34.8984 34.8565 44.9639 22.4549 44.9639C 10.0534 44.9639 0 34.8984 0 22.4819C 0 10.0655 10.0534 0 22.4549 0C 34.8565 0 44.9099 10.0655 44.9099 22.4819Z"/>
<path id="path5_fill" d="M 84.206 42.1536C 84.206 65.4344 65.3559 84.3072 42.103 84.3072C 18.8502 84.3072 0 65.4344 0 42.1536C 0 18.8728 18.8502 0 42.103 0C 65.3559 0 84.206 18.8728 84.206 42.1536Z"/>
<path id="path6_fill" d="M 206.773 103.511C 206.773 160.678 160.485 207.021 103.386 207.021C 46.2876 207.021 0 160.678 0 103.511C 0 46.3433 46.2876 0 103.386 0C 160.485 0 206.773 46.3433 206.773 103.511Z"/>
<path id="path7_fill" d="M 138.472 69.3193C 138.472 107.603 107.474 138.639 69.2361 138.639C 30.998 138.639 0 107.603 0 69.3193C 0 31.0353 30.998 0 69.2361 0C 107.474 0 138.472 31.0353 138.472 69.3193Z"/>
<path id="path8_fill" d="M 0 8C 0 3.58172 3.58172 0 8 0L 160.099 0C 164.517 0 168.099 3.58172 168.099 8L 168.099 82.8958C 168.099 87.314 164.517 90.8958 160.099 90.8958L 8 90.8958C 3.58173 90.8958 0 87.314 0 82.8958L 0 8Z"/>
<path id="path9_fill" d="M 0 5C 0 2.23858 2.23858 0 5 0L 148.284 0C 151.045 0 153.284 2.23858 153.284 5L 153.284 154.678C 153.284 157.44 151.045 159.678 148.284 159.678L 5 159.678C 2.23858 159.678 0 157.44 0 154.678L 0 5Z"/>
<path id="path10_fill" d="M 7.48498 3.74699C 7.48498 5.81639 5.80941 7.49398 3.74249 7.49398C 1.67557 7.49398 0 5.81639 0 3.74699C 0 1.67758 1.67557 0 3.74249 0C 5.80941 0 7.48498 1.67758 7.48498 3.74699Z"/>
<path id="path11_fill" d="M 5.61373 2.81024C 5.61373 4.36229 4.35706 5.62048 2.80687 5.62048C 1.25668 5.62048 0 4.36229 0 2.81024C 0 1.25819 1.25668 0 2.80687 0C 4.35706 0 5.61373 1.25819 5.61373 2.81024Z"/>
<path id="path12_fill" d="M 9.35622 4.68373C 9.35622 7.27049 7.26176 9.36747 4.67811 9.36747C 2.09446 9.36747 0 7.27049 0 4.68373C 0 2.09698 2.09446 0 4.67811 0C 7.26176 0 9.35622 2.09698 9.35622 4.68373Z"/>
<path id="path13_fill" d="M 13.0987 6.55723C 13.0987 10.1787 10.1665 13.1145 6.54936 13.1145C 2.93225 13.1145 0 10.1787 0 6.55723C 0 2.93577 2.93225 0 6.54936 0C 10.1665 0 13.0987 2.93577 13.0987 6.55723Z"/>
<path id="path14_fill" d="M 18.7124 9.36747C 18.7124 14.541 14.5235 18.7349 9.35622 18.7349C 4.18892 18.7349 0 14.541 0 9.36747C 0 4.19396 4.18892 0 9.35622 0C 14.5235 0 18.7124 4.19396 18.7124 9.36747Z"/>
<path id="path15_fill" d="M 23.3906 11.7093C 23.3906 18.1762 18.1544 23.4187 11.6953 23.4187C 5.23616 23.4187 0 18.1762 0 11.7093C 0 5.24245 5.23616 0 11.6953 0C 18.1544 0 23.3906 5.24245 23.3906 11.7093Z"/>
<path id="path16_fill" d="M 0 29.0043C 0 12.9857 12.9857 0 29.0043 0C 45.0229 0 58.0086 12.9857 58.0086 29.0043L 58.0086 29.9759C 58.0086 46.5311 44.5879 59.9518 28.0327 59.9518L 0 59.9518L 0 29.0043Z"/>
<path id="path17_fill" d="M 0 0L 32.9431 0L 32.9431 5.18102L 0 5.18102L 0 0Z"/>
<path id="path18_fill" d="M 0 37.8927C 0 16.9651 16.9651 0 37.8927 0C 58.8203 0 75.7854 16.9651 75.7854 37.8927L 75.7854 37.9383C 75.7854 58.891 58.7999 75.8765 37.8472 75.8765L 0 75.8765L 0 37.8927Z"/>
<path id="path19_fill" d="M 0 0L 43.0386 0L 43.0386 6.55723L 0 6.55723L 0 0Z"/>
</defs>
</svg>
