<svg width="98" height="82" viewBox="0 0 98 82" version="1.1" xmlns="http://www.w3.org/2000/svg" xmlns:xlink="http://www.w3.org/1999/xlink">
<title>ecomm</title>
<desc>Created using Figma</desc>
<g id="Canvas" transform="translate(-286 -930)">
<g id="ecomm">
<g id="Vector">
<use xlink:href="#path0_fill" transform="translate(315.892 998.92)" fill="#4D4D4D"/>
</g>
<g id="Vector">
<use xlink:href="#path1_fill" transform="translate(360.199 998.752)" fill="#4D4D4D"/>
</g>
<g id="Vector">
<use xlink:href="#path2_fill" transform="translate(286 930)" fill="#4D4D4D"/>
</g>
<g id="Vector">
<use xlink:href="#path3_fill" transform="translate(310.35 1000.96)" fill="#4D4D4D"/>
</g>
<g id="Vector">
<use xlink:href="#path4_fill" transform="translate(306.576 1003.19)" fill="#4D4D4D"/>
</g>
</g>
</g>
<defs>
<path id="path0_fill" d="M 7.3089 0.0677747C 3.6089 -0.432225 0.208898 1.86776 0.00889793 5.86776C -0.191102 9.76776 3.0089 12.0678 6.5089 12.1678C 9.9089 12.2678 13.5089 10.0678 13.3089 6.26776C 13.2089 3.06776 10.7089 0.267775 7.3089 0.0677747ZM 7.1089 9.26776C 5.3089 9.36776 3.6089 8.86777 3.1089 6.96777C 2.5089 4.56777 4.60891 2.66777 6.90891 3.06777C 6.90891 3.06777 6.9089 3.06777 7.0089 3.06777C 7.1089 3.06777 7.2089 3.06777 7.3089 3.06777C 8.9089 3.16777 10.0089 4.36776 10.3089 5.86776C 10.7089 7.86776 8.9089 9.16776 7.1089 9.26776Z"/>
<path id="path1_fill" d="M 6.40252 0.0359017C 2.80252 -0.364098 -0.097477 2.63591 0.00252296 6.13591C 0.102523 8.03591 1.0025 10.1359 2.6025 11.2359C 3.9025 12.2359 5.6025 12.1359 7.2025 12.2359C 10.7025 12.5359 12.7025 8.5359 12.1025 5.4359C 11.5025 2.1359 10.1025 0.0359017 6.40252 0.0359017ZM 7.30251 9.33592C 5.20251 9.23592 3.5025 8.9359 3.1025 6.5359C 2.8025 4.3359 4.20252 2.8359 6.40252 3.0359C 8.20252 3.0359 8.60252 3.63592 9.00252 5.33592C 9.40252 6.73592 9.40251 9.43592 7.30251 9.33592Z"/>
<path id="path2_fill" d="M 92.7014 19.2879C 83.7014 17.4879 73.9014 17.9879 64.7014 17.2879C 50.8014 16.1879 37.0014 15.3879 23.1014 14.8879C 22.7014 13.0879 22.2014 11.3879 21.5014 9.88787C 20.1014 6.88787 17.2014 6.28787 14.3014 5.38787C 14.4014 4.28787 14.1014 3.48786 12.8014 2.78786C 11.2014 1.88786 9.3014 1.28786 7.5014 0.687857C 5.2014 -0.0121432 -0.0986044 -1.11213 0.00139563 2.88787C 0.101396 5.98787 4.1014 7.18787 6.5014 7.98787C 8.5014 8.68787 11.3014 9.38788 13.0014 8.08788C 14.8014 8.68788 16.5014 8.98787 17.9014 10.4879C 19.5014 12.1879 19.6014 14.6879 20.2014 16.9879C 21.3014 21.8879 22.6014 26.6879 23.9014 31.5879C 26.1014 39.6879 28.5014 47.7879 30.4014 55.9879C 28.0014 56.8879 26.1014 58.9879 26.2014 61.8879C 26.3014 66.2879 30.6014 67.2879 34.2014 67.3879C 51.2014 67.7879 68.2014 67.4879 85.1014 67.5879C 87.0014 67.5879 87.0014 64.5879 85.1014 64.5879C 75.1014 64.5879 65.0014 64.5879 55.0014 64.5879C 49.7014 64.5879 44.3014 64.5879 39.0014 64.4879C 36.9014 64.4879 31.4014 65.2879 29.8014 63.3879C 28.2014 61.4879 30.0014 58.8879 32.2014 58.6879C 46.7014 58.7879 61.2014 58.5879 75.7014 58.7879C 79.2014 58.7879 85.3014 59.4879 87.8014 56.2879C 88.9014 54.9879 89.2014 52.8879 89.7014 51.2879C 90.8014 47.8879 91.9014 44.4879 93.0014 41.0879C 94.7014 35.8879 97.0014 30.2879 97.6014 24.8879C 97.7014 21.2879 96.0014 19.9879 92.7014 19.2879ZM 6.8014 5.58788C 5.9014 5.28788 3.0014 4.48787 2.5014 3.48788C 2.1014 2.68788 3.0014 2.08788 3.5014 1.98788C 3.8014 1.88788 4.2014 1.98788 4.5014 2.08788C 5.5014 2.28788 6.4014 2.58787 7.3014 2.88787C 8.4014 3.28787 9.40139 3.68788 10.4014 4.08788C 11.5014 4.48788 12.0014 4.58786 11.7014 5.78786C 11.4014 7.28786 7.8014 5.88788 6.8014 5.58788ZM 94.4014 23.2879C 95.2014 24.8879 93.4014 29.0879 92.9014 30.7879C 92.8014 31.1879 92.6014 31.6879 92.5014 32.0879C 88.3014 31.8879 84.1014 31.5879 79.9014 31.2879C 80.7014 27.8879 81.5014 24.5879 82.4014 21.2879C 86.6014 21.2879 93.4014 21.3879 94.4014 23.2879ZM 89.5014 41.4879C 89.3014 42.1879 89.0014 42.8879 88.8014 43.5879C 85.0014 43.3879 81.2014 43.2879 77.4014 43.1879C 78.0014 39.9879 78.7014 36.6879 79.4014 33.4879C 83.5014 33.7879 87.7014 33.9879 91.8014 34.2879C 91.0014 36.6879 90.3014 39.0879 89.5014 41.4879ZM 64.9014 55.6879C 65.1014 52.1879 65.3014 48.6879 65.5014 45.1879C 68.5014 45.2879 71.6014 45.3879 74.6014 45.3879C 73.9014 48.7879 73.3014 52.1879 72.6014 55.5879C 70.1014 55.6879 67.5014 55.6879 64.9014 55.6879ZM 65.7014 42.8879C 65.9014 39.3879 66.2014 35.9879 66.5014 32.4879C 70.0014 32.7879 73.6014 33.0879 77.1014 33.2879C 76.4014 36.5879 75.8014 39.7879 75.1014 43.0879C 72.0014 43.0879 68.9014 42.9879 65.7014 42.8879ZM 33.3014 55.4879C 32.5014 51.6879 31.5014 47.9879 30.5014 44.1879C 33.4014 44.2879 36.2014 44.3879 39.1014 44.4879C 39.9014 48.1879 40.7014 51.8879 41.7014 55.5879C 38.9014 55.4879 36.1014 55.4879 33.3014 55.4879ZM 26.4014 29.2879C 29.7014 29.4879 33.0014 29.7879 36.3014 30.0879C 37.1014 34.1879 37.9014 38.1879 38.7014 42.2879C 35.8014 42.1879 32.9014 42.0879 29.9014 41.9879C 28.7014 37.6879 27.5014 33.4879 26.4014 29.2879ZM 44.1014 55.5879C 43.1014 51.9879 42.2014 48.2879 41.5014 44.5879C 44.7014 44.6879 47.8014 44.7879 51.0014 44.8879C 51.2014 48.4879 51.5014 52.0879 51.7014 55.6879C 49.1014 55.5879 46.6014 55.5879 44.1014 55.5879ZM 40.9014 42.2879C 40.1014 38.2879 39.3014 34.2879 38.5014 30.2879C 42.3014 30.5879 46.1014 30.8879 49.9014 31.2879C 50.2014 35.0879 50.5014 38.8879 50.7014 42.6879C 47.5014 42.4879 44.2014 42.3879 40.9014 42.2879ZM 38.1014 27.9879C 37.5014 24.7879 36.8014 21.5879 36.1014 18.3879C 40.4014 18.5879 44.7014 18.8879 49.0014 19.0879C 49.3014 22.3879 49.5014 25.5879 49.7014 28.8879C 45.9014 28.5879 42.0014 28.2879 38.1014 27.9879ZM 52.2014 31.3879C 56.2014 31.6879 60.2014 32.0879 64.3014 32.3879C 64.0014 35.8879 63.7014 39.3879 63.5014 42.8879C 60.0014 42.7879 56.5014 42.6879 53.1014 42.5879C 52.8014 38.8879 52.5014 35.0879 52.2014 31.3879ZM 80.1014 21.2879C 79.2014 24.5879 78.4014 27.8879 77.7014 31.1879C 74.1014 30.8879 70.4014 30.6879 66.8014 30.3879C 67.1014 27.0879 67.4014 23.7879 67.7014 20.4879C 71.7014 20.7879 75.8014 20.9879 79.8014 21.2879C 79.8014 21.1879 80.0014 21.1879 80.1014 21.2879ZM 65.4014 20.2879C 65.1014 23.5879 64.8014 26.8879 64.5014 30.1879C 60.4014 29.8879 56.2014 29.4879 52.1014 29.1879C 51.9014 25.8879 51.6014 22.5879 51.4014 19.3879C 55.5014 19.6879 59.6014 19.9879 63.7014 20.2879C 64.2014 20.1879 64.8014 20.1879 65.4014 20.2879ZM 23.8014 17.7879C 27.1014 17.8879 30.5014 18.0879 33.8014 18.1879C 34.5014 21.3879 35.2014 24.4879 35.8014 27.6879C 32.5014 27.3879 29.1014 27.1879 25.7014 26.8879C 25.5014 26.1879 25.3014 25.4879 25.1014 24.7879C 24.6014 22.6879 24.2014 20.2879 23.8014 17.7879ZM 53.9014 55.6879C 53.7014 52.0879 53.4014 48.4879 53.2014 44.8879C 56.6014 44.9879 60.0014 45.0879 63.3014 45.0879C 63.1014 48.5879 62.8014 52.0879 62.6014 55.6879C 59.8014 55.6879 56.9014 55.6879 53.9014 55.6879ZM 86.5014 50.9879C 85.1014 55.5879 82.5014 55.4879 77.9014 55.5879C 76.9014 55.5879 76.0014 55.5879 75.0014 55.6879C 75.7014 52.3879 76.4014 48.9879 77.0014 45.5879C 80.7014 45.6879 84.4014 45.7879 88.1014 45.9879C 87.5014 47.5879 87.0014 49.2879 86.5014 50.9879Z"/>
<path id="path3_fill" d="M 2.65127 1.72721C 3.25127 0.427215 1.25128 -0.772761 0.751281 0.627239C -0.548719 3.52724 -0.148729 6.62724 1.85127 9.12724C 2.75127 10.2272 4.35128 8.62723 3.45128 7.52723C 2.15128 5.82723 1.85127 3.62721 2.65127 1.72721Z"/>
<path id="path4_fill" d="M 2.225 1.09999C 2.225 0.499994 1.625 -1.2207e-05 1.125 -1.2207e-05C 0.524997 -1.2207e-05 0.0250061 0.499994 0.0250061 1.09999C -0.0749939 2.19999 0.124997 3.40001 0.624997 4.40001C 1.325 5.70001 3.32501 4.50001 2.52501 3.30001C 2.12501 2.60001 2.125 1.89999 2.225 1.09999Z"/>
</defs>
</svg>
