<svg width="347" height="347" viewBox="0 0 347 347" version="1.1" xmlns="http://www.w3.org/2000/svg" xmlns:xlink="http://www.w3.org/1999/xlink">
<title>ecomm</title>
<desc>Created using Figma</desc>
<g id="Canvas" transform="translate(170 -1261)">
<g id="ecomm">
<g id="Ellipse">
<use xlink:href="#path0_fill" transform="translate(-170 1261)" fill="url(#paint0_radial)"/>
</g>
<g id="Rectangle 2" filter="url(#filter0_dd)">
<use xlink:href="#path1_fill" transform="matrix(0.898875 -0.438205 0.438126 0.898913 -147 1398.84)" fill="#66F274"/>
</g>
<g id="Rectangle 2.1" filter="url(#filter1_ddd)">
<use xlink:href="#path2_fill" transform="matrix(0.898875 -0.438205 0.438126 0.898913 -134.269 1395.17)" fill="#FFFFFF"/>
</g>
<g id="&#239;&#129;&#186;">
<use xlink:href="#path3_fill" transform="matrix(0.907506 -0.420039 0.420039 0.907506 42 1325.3)" fill="#2F80ED"/>
</g>
<g id="Ellipse 2">
<use xlink:href="#path4_fill" transform="translate(-116 1398)" fill="#AE49FC"/>
</g>
<g id="menu">
<g id="Ellipse" filter="url(#filter2_d)">
<use xlink:href="#path5_fill" transform="translate(-125 1393)" fill="#EB5757"/>
</g>
<g id="Ellipse" filter="url(#filter3_d)">
<use xlink:href="#path5_fill" transform="translate(-119 1390)" fill="#F2C94C"/>
</g>
<g id="Ellipse" filter="url(#filter4_d)">
<use xlink:href="#path5_fill" transform="translate(-113 1387)" fill="#6FCF97"/>
</g>
</g>
<g id="Your">
<use xlink:href="#path6_fill" transform="matrix(0.892504 -0.451039 0.451039 0.892504 -100 1392.73)" fill="#747474"/>
</g>
<g id="Brand">
<use xlink:href="#path7_fill" transform="matrix(0.892504 -0.451039 0.451039 0.892504 -77.2495 1382.88)" fill="#747474"/>
</g>
<g id="Star" filter="url(#filter5_d)">
<use xlink:href="#path8_fill" transform="matrix(0.903647 -0.428278 0.428278 0.903647 -119 1401.71)" fill="#F2C94C"/>
</g>
<g id="card">
<g id="Rectangle 2">
<use xlink:href="#path9_fill" transform="matrix(0.898018 -0.439959 0.439959 0.898018 -109.645 1427.96)" fill="#EBEDEC"/>
</g>
<g id="Rectangle 2.2">
<use xlink:href="#path10_fill" transform="matrix(0.90443 -0.426623 0.426623 0.90443 -91.1084 1461.9)" fill="#B2B9B8"/>
</g>
<g id="Rectangle 2.3">
<use xlink:href="#path11_fill" transform="matrix(0.90443 -0.426623 0.426623 0.90443 -89 1466.02)" fill="#B2B9B8"/>
</g>
<g id="Rectangle 2.1" filter="url(#filter6_dd)">
<use xlink:href="#path12_fill" transform="matrix(0.899171 -0.437598 0.437598 0.899171 -105.462 1426.23)" fill="#8160B7"/>
</g>
<g id="$$$">
<use xlink:href="#path13_fill" transform="matrix(0.898075 -0.439842 0.439842 0.898075 -50.9674 1454.93)" fill="#219653"/>
</g>
</g>
<g id="card">
<g id="Rectangle 2">
<use xlink:href="#path9_fill" transform="matrix(0.898018 -0.439959 0.439959 0.898018 -40 1396.64)" fill="#EBEDEC"/>
</g>
<g id="Rectangle 2.2">
<use xlink:href="#path10_fill" transform="matrix(0.90443 -0.426623 0.426623 0.90443 -21.4634 1430.58)" fill="#B2B9B8"/>
</g>
<g id="Rectangle 2.3">
<use xlink:href="#path11_fill" transform="matrix(0.90443 -0.426623 0.426623 0.90443 -19.355 1434.7)" fill="#B2B9B8"/>
</g>
<g id="Rectangle 2.1" filter="url(#filter7_dd)">
<use xlink:href="#path12_fill" transform="matrix(0.899171 -0.437598 0.437598 0.899171 -35.8167 1394.91)" fill="#2F80ED"/>
</g>
<g id="$$$">
<use xlink:href="#path13_fill" transform="matrix(0.898075 -0.439842 0.439842 0.898075 18.6776 1423.61)" fill="#219653"/>
</g>
</g>
<g id="card">
<g id="Rectangle 2">
<use xlink:href="#path9_fill" transform="matrix(0.898018 -0.439959 0.439959 0.898018 22 1364.64)" fill="#EBEDEC"/>
</g>
<g id="Rectangle 2.2">
<use xlink:href="#path10_fill" transform="matrix(0.90443 -0.426623 0.426623 0.90443 40.5366 1398.58)" fill="#B2B9B8"/>
</g>
<g id="Rectangle 2.3">
<use xlink:href="#path11_fill" transform="matrix(0.90443 -0.426623 0.426623 0.90443 42.645 1402.7)" fill="#B2B9B8"/>
</g>
<g id="Rectangle 2.1" filter="url(#filter8_dd)">
<use xlink:href="#path12_fill" transform="matrix(0.899171 -0.437598 0.437598 0.899171 26.1833 1362.91)" fill="#F2C94C"/>
</g>
<g id="$$$">
<use xlink:href="#path13_fill" transform="matrix(0.898075 -0.439842 0.439842 0.898075 80.6776 1391.61)" fill="#219653"/>
</g>
</g>
<g id="Mask Group">
<mask id="mask0_alpha" mask-type="alpha">
<g id="Rectangle 2.2">
<use xlink:href="#path2_fill" transform="matrix(0.898875 -0.438205 0.438126 0.898913 -134 1395.36)" fill="#FFFFFF"/>
</g>
</mask>
<g id="card" mask="url(#mask0_alpha)">
<g id="Rectangle 2">
<use xlink:href="#path9_fill" transform="matrix(0.898018 -0.439959 0.439959 0.898018 -73 1503.96)" fill="#EBEDEC"/>
</g>
<g id="Rectangle 2.2">
<use xlink:href="#path10_fill" transform="matrix(0.90443 -0.426623 0.426623 0.90443 -54.4634 1537.9)" fill="#B2B9B8"/>
</g>
<g id="Rectangle 2.3">
<use xlink:href="#path11_fill" transform="matrix(0.90443 -0.426623 0.426623 0.90443 -52.355 1542.02)" fill="#B2B9B8"/>
</g>
<g id="Rectangle 2.1" filter="url(#filter9_dd)">
<use xlink:href="#path12_fill" transform="matrix(0.899171 -0.437598 0.437598 0.899171 -68.8167 1502.23)" fill="#219653"/>
</g>
<g id="$$$">
<use xlink:href="#path13_fill" transform="matrix(0.898075 -0.439842 0.439842 0.898075 -14.3224 1530.93)" fill="#219653"/>
</g>
</g>
<g id="card" mask="url(#mask0_alpha)">
<g id="Rectangle 2">
<use xlink:href="#path9_fill" transform="matrix(0.898018 -0.439959 0.439959 0.898018 -3.35498 1472.64)" fill="#EBEDEC"/>
</g>
<g id="Rectangle 2.2">
<use xlink:href="#path10_fill" transform="matrix(0.90443 -0.426623 0.426623 0.90443 15.1816 1506.58)" fill="#B2B9B8"/>
</g>
<g id="Rectangle 2.3">
<use xlink:href="#path11_fill" transform="matrix(0.90443 -0.426623 0.426623 0.90443 17.29 1510.7)" fill="#B2B9B8"/>
</g>
<g id="Rectangle 2.1" filter="url(#filter10_dd)">
<use xlink:href="#path12_fill" transform="matrix(0.899171 -0.437598 0.437598 0.899171 0.828369 1470.91)" fill="#C275FF"/>
</g>
<g id="$$$">
<use xlink:href="#path13_fill" transform="matrix(0.898075 -0.439842 0.439842 0.898075 55.3226 1499.61)" fill="#219653"/>
</g>
</g>
<g id="card" mask="url(#mask0_alpha)">
<g id="Rectangle 2">
<use xlink:href="#path9_fill" transform="matrix(0.898018 -0.439959 0.439959 0.898018 58.645 1440.64)" fill="#EBEDEC"/>
</g>
<g id="Rectangle 2.2">
<use xlink:href="#path10_fill" transform="matrix(0.90443 -0.426623 0.426623 0.90443 77.1816 1474.58)" fill="#B2B9B8"/>
</g>
<g id="Rectangle 2.3">
<use xlink:href="#path11_fill" transform="matrix(0.90443 -0.426623 0.426623 0.90443 79.29 1478.7)" fill="#B2B9B8"/>
</g>
<g id="Rectangle 2.1" filter="url(#filter11_dd)">
<use xlink:href="#path12_fill" transform="matrix(0.899171 -0.437598 0.437598 0.899171 62.8284 1438.91)" fill="#FF2F64"/>
</g>
<g id="$$$">
<use xlink:href="#path13_fill" transform="matrix(0.898075 -0.439842 0.439842 0.898075 117.323 1467.61)" fill="#219653"/>
</g>
</g>
</g>
<g id="Group">
<g id="Ellipse 3">
<mask id="mask1_outline_ins">
<use xlink:href="#path14_fill" fill="white" transform="translate(-83 1470)"/>
</mask>
<g mask="url(#mask1_outline_ins)">
<use xlink:href="#path15_stroke_2x" transform="translate(-83 1470)" fill="#2F80ED"/>
</g>
</g>
<g id="+">
<use xlink:href="#path16_fill" transform="matrix(0.895327 -0.44541 0.44541 0.895327 -83 1470.78)" fill="#2F80ED"/>
</g>
</g>
<g id="Group">
<g id="Ellipse 3">
<mask id="mask2_outline_ins">
<use xlink:href="#path14_fill" fill="white" transform="translate(-12 1439)"/>
</mask>
<g mask="url(#mask2_outline_ins)">
<use xlink:href="#path15_stroke_2x" transform="translate(-12 1439)" fill="#2F80ED"/>
</g>
</g>
<g id="+">
<use xlink:href="#path16_fill" transform="matrix(0.895327 -0.44541 0.44541 0.895327 -12 1439.78)" fill="#2F80ED"/>
</g>
</g>
<g id="Group">
<g id="Ellipse 3">
<mask id="mask3_outline_ins">
<use xlink:href="#path14_fill" fill="white" transform="translate(49 1407)"/>
</mask>
<g mask="url(#mask3_outline_ins)">
<use xlink:href="#path15_stroke_2x" transform="translate(49 1407)" fill="#2F80ED"/>
</g>
</g>
<g id="+">
<use xlink:href="#path16_fill" transform="matrix(0.895327 -0.44541 0.44541 0.895327 49 1407.78)" fill="#2F80ED"/>
</g>
</g>
</g>
</g>
<defs>
<filter id="filter0_dd" filterUnits="userSpaceOnUse" x="-165" y="1283" width="329" height="299" color-interpolation-filters="sRGB">
<feFlood flood-opacity="0" result="BackgroundImageFix"/>
<feColorMatrix in="SourceAlpha" type="matrix" values="0 0 0 0 0 0 0 0 0 0 0 0 0 0 0 0 0 0 255 0"/>
<feOffset dx="-4" dy="6"/>
<feGaussianBlur stdDeviation="7.5"/>
<feColorMatrix type="matrix" values="0 0 0 0 0 0 0 0 0 0 0 0 0 0 0 0 0 0 0.4 0"/>
<feBlend mode="normal" in2="BackgroundImageFix" result="effect1_dropShadow"/>
<feColorMatrix in="SourceAlpha" type="matrix" values="0 0 0 0 0 0 0 0 0 0 0 0 0 0 0 0 0 0 255 0"/>
<feOffset dx="-2" dy="5"/>
<feColorMatrix type="matrix" values="0 0 0 0 0.129412 0 0 0 0 0.588235 0 0 0 0 0.32549 0 0 0 1 0"/>
<feBlend mode="normal" in2="effect1_dropShadow" result="effect2_dropShadow"/>
<feBlend mode="normal" in="SourceGraphic" in2="effect2_dropShadow" result="shape"/>
</filter>
<filter id="filter1_ddd" filterUnits="userSpaceOnUse" x="-156" y="1288" width="311" height="285" color-interpolation-filters="sRGB">
<feFlood flood-opacity="0" result="BackgroundImageFix"/>
<feColorMatrix in="SourceAlpha" type="matrix" values="0 0 0 0 0 0 0 0 0 0 0 0 0 0 0 0 0 0 255 0"/>
<feOffset dx="-7" dy="10"/>
<feGaussianBlur stdDeviation="8"/>
<feColorMatrix type="matrix" values="0 0 0 0 0 0 0 0 0 0 0 0 0 0 0 0 0 0 0.23 0"/>
<feBlend mode="normal" in2="BackgroundImageFix" result="effect1_dropShadow"/>
<feColorMatrix in="SourceAlpha" type="matrix" values="0 0 0 0 0 0 0 0 0 0 0 0 0 0 0 0 0 0 255 0"/>
<feOffset dx="-1" dy="6"/>
<feColorMatrix type="matrix" values="0 0 0 0 0.2 0 0 0 0 0.2 0 0 0 0 0.2 0 0 0 0.09 0"/>
<feBlend mode="normal" in2="effect1_dropShadow" result="effect2_dropShadow"/>
<feColorMatrix in="SourceAlpha" type="matrix" values="0 0 0 0 0 0 0 0 0 0 0 0 0 0 0 0 0 0 255 0"/>
<feOffset dx="-2" dy="4"/>
<feGaussianBlur stdDeviation="6"/>
<feColorMatrix type="matrix" values="0 0 0 0 0.38 0 0 0 0 0.3534 0 0 0 0 0.3534 0 0 0 0.08 0"/>
<feBlend mode="normal" in2="effect2_dropShadow" result="effect3_dropShadow"/>
<feBlend mode="normal" in="SourceGraphic" in2="effect3_dropShadow" result="shape"/>
</filter>
<filter id="filter2_d" filterUnits="userSpaceOnUse" x="-127" y="1392" width="7" height="7" color-interpolation-filters="sRGB">
<feFlood flood-opacity="0" result="BackgroundImageFix"/>
<feColorMatrix in="SourceAlpha" type="matrix" values="0 0 0 0 0 0 0 0 0 0 0 0 0 0 0 0 0 0 255 0"/>
<feOffset dx="0" dy="1"/>
<feGaussianBlur stdDeviation="1"/>
<feColorMatrix type="matrix" values="0 0 0 0 0 0 0 0 0 0 0 0 0 0 0 0 0 0 0.16 0"/>
<feBlend mode="normal" in2="BackgroundImageFix" result="effect1_dropShadow"/>
<feBlend mode="normal" in="SourceGraphic" in2="effect1_dropShadow" result="shape"/>
</filter>
<filter id="filter3_d" filterUnits="userSpaceOnUse" x="-121" y="1389" width="7" height="7" color-interpolation-filters="sRGB">
<feFlood flood-opacity="0" result="BackgroundImageFix"/>
<feColorMatrix in="SourceAlpha" type="matrix" values="0 0 0 0 0 0 0 0 0 0 0 0 0 0 0 0 0 0 255 0"/>
<feOffset dx="0" dy="1"/>
<feGaussianBlur stdDeviation="1"/>
<feColorMatrix type="matrix" values="0 0 0 0 0 0 0 0 0 0 0 0 0 0 0 0 0 0 0.16 0"/>
<feBlend mode="normal" in2="BackgroundImageFix" result="effect1_dropShadow"/>
<feBlend mode="normal" in="SourceGraphic" in2="effect1_dropShadow" result="shape"/>
</filter>
<filter id="filter4_d" filterUnits="userSpaceOnUse" x="-115" y="1386" width="7" height="7" color-interpolation-filters="sRGB">
<feFlood flood-opacity="0" result="BackgroundImageFix"/>
<feColorMatrix in="SourceAlpha" type="matrix" values="0 0 0 0 0 0 0 0 0 0 0 0 0 0 0 0 0 0 255 0"/>
<feOffset dx="0" dy="1"/>
<feGaussianBlur stdDeviation="1"/>
<feColorMatrix type="matrix" values="0 0 0 0 0 0 0 0 0 0 0 0 0 0 0 0 0 0 0.16 0"/>
<feBlend mode="normal" in2="BackgroundImageFix" result="effect1_dropShadow"/>
<feBlend mode="normal" in="SourceGraphic" in2="effect1_dropShadow" result="shape"/>
</filter>
<filter id="filter5_d" filterUnits="userSpaceOnUse" x="-116" y="1397" width="18" height="19" color-interpolation-filters="sRGB">
<feFlood flood-opacity="0" result="BackgroundImageFix"/>
<feColorMatrix in="SourceAlpha" type="matrix" values="0 0 0 0 0 0 0 0 0 0 0 0 0 0 0 0 0 0 255 0"/>
<feOffset dx="0" dy="1"/>
<feColorMatrix type="matrix" values="0 0 0 0 0.74 0 0 0 0 0.557229 0 0 0 0 0 0 0 0 1 0"/>
<feBlend mode="normal" in2="BackgroundImageFix" result="effect1_dropShadow"/>
<feBlend mode="normal" in="SourceGraphic" in2="effect1_dropShadow" result="shape"/>
</filter>
<filter id="filter6_dd" filterUnits="userSpaceOnUse" x="-116" y="1401" width="76" height="69" color-interpolation-filters="sRGB">
<feFlood flood-opacity="0" result="BackgroundImageFix"/>
<feColorMatrix in="SourceAlpha" type="matrix" values="0 0 0 0 0 0 0 0 0 0 0 0 0 0 0 0 0 0 255 0"/>
<feOffset dx="-1" dy="2"/>
<feColorMatrix type="matrix" values="0 0 0 0 0.265584 0 0 0 0 0.2014 0 0 0 0 0.38 0 0 0 0.57 0"/>
<feBlend mode="normal" in2="BackgroundImageFix" result="effect1_dropShadow"/>
<feColorMatrix in="SourceAlpha" type="matrix" values="0 0 0 0 0 0 0 0 0 0 0 0 0 0 0 0 0 0 255 0"/>
<feOffset dx="-3" dy="4"/>
<feGaussianBlur stdDeviation="3.5"/>
<feColorMatrix type="matrix" values="0 0 0 0 0 0 0 0 0 0 0 0 0 0 0 0 0 0 0.33 0"/>
<feBlend mode="normal" in2="effect1_dropShadow" result="effect2_dropShadow"/>
<feBlend mode="normal" in="SourceGraphic" in2="effect2_dropShadow" result="shape"/>
</filter>
<filter id="filter7_dd" filterUnits="userSpaceOnUse" x="-46" y="1369" width="76" height="69" color-interpolation-filters="sRGB">
<feFlood flood-opacity="0" result="BackgroundImageFix"/>
<feColorMatrix in="SourceAlpha" type="matrix" values="0 0 0 0 0 0 0 0 0 0 0 0 0 0 0 0 0 0 255 0"/>
<feOffset dx="-1" dy="2"/>
<feColorMatrix type="matrix" values="0 0 0 0 0.265584 0 0 0 0 0.2014 0 0 0 0 0.38 0 0 0 0.57 0"/>
<feBlend mode="normal" in2="BackgroundImageFix" result="effect1_dropShadow"/>
<feColorMatrix in="SourceAlpha" type="matrix" values="0 0 0 0 0 0 0 0 0 0 0 0 0 0 0 0 0 0 255 0"/>
<feOffset dx="-3" dy="4"/>
<feGaussianBlur stdDeviation="3.5"/>
<feColorMatrix type="matrix" values="0 0 0 0 0 0 0 0 0 0 0 0 0 0 0 0 0 0 0.33 0"/>
<feBlend mode="normal" in2="effect1_dropShadow" result="effect2_dropShadow"/>
<feBlend mode="normal" in="SourceGraphic" in2="effect2_dropShadow" result="shape"/>
</filter>
<filter id="filter8_dd" filterUnits="userSpaceOnUse" x="16" y="1337" width="76" height="69" color-interpolation-filters="sRGB">
<feFlood flood-opacity="0" result="BackgroundImageFix"/>
<feColorMatrix in="SourceAlpha" type="matrix" values="0 0 0 0 0 0 0 0 0 0 0 0 0 0 0 0 0 0 255 0"/>
<feOffset dx="-1" dy="2"/>
<feColorMatrix type="matrix" values="0 0 0 0 0.265584 0 0 0 0 0.2014 0 0 0 0 0.38 0 0 0 0.57 0"/>
<feBlend mode="normal" in2="BackgroundImageFix" result="effect1_dropShadow"/>
<feColorMatrix in="SourceAlpha" type="matrix" values="0 0 0 0 0 0 0 0 0 0 0 0 0 0 0 0 0 0 255 0"/>
<feOffset dx="-3" dy="4"/>
<feGaussianBlur stdDeviation="3.5"/>
<feColorMatrix type="matrix" values="0 0 0 0 0 0 0 0 0 0 0 0 0 0 0 0 0 0 0.33 0"/>
<feBlend mode="normal" in2="effect1_dropShadow" result="effect2_dropShadow"/>
<feBlend mode="normal" in="SourceGraphic" in2="effect2_dropShadow" result="shape"/>
</filter>
<filter id="filter9_dd" filterUnits="userSpaceOnUse" x="-79" y="1477" width="76" height="69" color-interpolation-filters="sRGB">
<feFlood flood-opacity="0" result="BackgroundImageFix"/>
<feColorMatrix in="SourceAlpha" type="matrix" values="0 0 0 0 0 0 0 0 0 0 0 0 0 0 0 0 0 0 255 0"/>
<feOffset dx="-1" dy="2"/>
<feColorMatrix type="matrix" values="0 0 0 0 0.265584 0 0 0 0 0.2014 0 0 0 0 0.38 0 0 0 0.57 0"/>
<feBlend mode="normal" in2="BackgroundImageFix" result="effect1_dropShadow"/>
<feColorMatrix in="SourceAlpha" type="matrix" values="0 0 0 0 0 0 0 0 0 0 0 0 0 0 0 0 0 0 255 0"/>
<feOffset dx="-3" dy="4"/>
<feGaussianBlur stdDeviation="3.5"/>
<feColorMatrix type="matrix" values="0 0 0 0 0 0 0 0 0 0 0 0 0 0 0 0 0 0 0.33 0"/>
<feBlend mode="normal" in2="effect1_dropShadow" result="effect2_dropShadow"/>
<feBlend mode="normal" in="SourceGraphic" in2="effect2_dropShadow" result="shape"/>
</filter>
<filter id="filter10_dd" filterUnits="userSpaceOnUse" x="-10" y="1445" width="76" height="69" color-interpolation-filters="sRGB">
<feFlood flood-opacity="0" result="BackgroundImageFix"/>
<feColorMatrix in="SourceAlpha" type="matrix" values="0 0 0 0 0 0 0 0 0 0 0 0 0 0 0 0 0 0 255 0"/>
<feOffset dx="-1" dy="2"/>
<feColorMatrix type="matrix" values="0 0 0 0 0.265584 0 0 0 0 0.2014 0 0 0 0 0.38 0 0 0 0.57 0"/>
<feBlend mode="normal" in2="BackgroundImageFix" result="effect1_dropShadow"/>
<feColorMatrix in="SourceAlpha" type="matrix" values="0 0 0 0 0 0 0 0 0 0 0 0 0 0 0 0 0 0 255 0"/>
<feOffset dx="-3" dy="4"/>
<feGaussianBlur stdDeviation="3.5"/>
<feColorMatrix type="matrix" values="0 0 0 0 0 0 0 0 0 0 0 0 0 0 0 0 0 0 0.33 0"/>
<feBlend mode="normal" in2="effect1_dropShadow" result="effect2_dropShadow"/>
<feBlend mode="normal" in="SourceGraphic" in2="effect2_dropShadow" result="shape"/>
</filter>
<filter id="filter11_dd" filterUnits="userSpaceOnUse" x="52" y="1413" width="76" height="69" color-interpolation-filters="sRGB">
<feFlood flood-opacity="0" result="BackgroundImageFix"/>
<feColorMatrix in="SourceAlpha" type="matrix" values="0 0 0 0 0 0 0 0 0 0 0 0 0 0 0 0 0 0 255 0"/>
<feOffset dx="-1" dy="2"/>
<feColorMatrix type="matrix" values="0 0 0 0 0.265584 0 0 0 0 0.2014 0 0 0 0 0.38 0 0 0 0.57 0"/>
<feBlend mode="normal" in2="BackgroundImageFix" result="effect1_dropShadow"/>
<feColorMatrix in="SourceAlpha" type="matrix" values="0 0 0 0 0 0 0 0 0 0 0 0 0 0 0 0 0 0 255 0"/>
<feOffset dx="-3" dy="4"/>
<feGaussianBlur stdDeviation="3.5"/>
<feColorMatrix type="matrix" values="0 0 0 0 0 0 0 0 0 0 0 0 0 0 0 0 0 0 0.33 0"/>
<feBlend mode="normal" in2="effect1_dropShadow" result="effect2_dropShadow"/>
<feBlend mode="normal" in="SourceGraphic" in2="effect2_dropShadow" result="shape"/>
</filter>
<radialGradient id="paint0_radial" cx="0.5" cy="0.5" r="0.5" gradientUnits="userSpaceOnUse" gradientTransform="matrix(2.12476e-14 347 -347 2.12476e-14 347 -2.12476e-14)">
<stop offset="0" stop-color="#5F109E"/>
<stop offset="1" stop-color="#D8C2FC"/>
</radialGradient>
<path id="path0_fill" d="M 347 173.5C 347 269.321 269.321 347 173.5 347C 77.6786 347 0 269.321 0 173.5C 0 77.6786 77.6786 0 173.5 0C 269.321 0 347 77.6786 347 173.5Z"/>
<path id="path1_fill" d="M 0 4.99999C 0 2.23857 2.23858 0 5 0L 242.138 0C 244.899 0 247.138 2.23858 247.138 5L 247.138 176.194C 247.138 178.955 244.899 181.194 242.138 181.194L 5 181.194C 2.23857 181.194 0 178.955 0 176.194L 0 4.99999Z"/>
<path id="path2_fill" d="M -6.38613e-13 4C -6.47095e-13 1.79086 1.79086 0 4 0L 225.037 0C 227.246 0 229.037 1.79086 229.037 4L 229.037 166.336C 229.037 168.545 227.246 170.336 225.037 170.336L 4 170.336C 1.79086 170.336 -6.87565e-15 168.545 -1.53572e-14 166.336L -6.38613e-13 4Z"/>
<path id="path3_fill" d="M 5.71429 14C 5.71429 13.375 5.19643 12.8571 4.57143 12.8571C 3.94643 12.8571 3.42857 13.375 3.42857 14C 3.42857 14.625 3.94643 15.1429 4.57143 15.1429C 5.19643 15.1429 5.71429 14.625 5.71429 14ZM 13.7143 14C 13.7143 13.375 13.1964 12.8571 12.5714 12.8571C 11.9464 12.8571 11.4286 13.375 11.4286 14C 11.4286 14.625 11.9464 15.1429 12.5714 15.1429C 13.1964 15.1429 13.7143 14.625 13.7143 14ZM 14.8571 4.28571C 14.8571 3.97321 14.5982 3.71429 14.2857 3.71429L 3.5625 3.71429C 3.47321 3.28571 3.45536 2.57143 2.85714 2.57143L 0.571429 2.57143C 0.258929 2.57143 0 2.83036 0 3.14286C 0 3.45536 0.258929 3.71429 0.571429 3.71429L 2.39286 3.71429L 3.97321 11.0625C 3.83036 11.3393 3.42857 12.0089 3.42857 12.2857C 3.42857 12.5982 3.6875 12.8571 4 12.8571L 13.1429 12.8571C 13.4554 12.8571 13.7143 12.5982 13.7143 12.2857C 13.7143 11.9732 13.4554 11.7143 13.1429 11.7143L 4.92857 11.7143C 5.01786 11.5357 5.14286 11.3482 5.14286 11.1429C 5.14286 10.9286 5.07143 10.7232 5.02679 10.5179L 14.3482 9.42857C 14.6339 9.39286 14.8571 9.14286 14.8571 8.85714L 14.8571 4.28571Z"/>
<path id="path4_fill" d="M 18 9C 18 13.9706 13.9706 18 9 18C 4.02944 18 0 13.9706 0 9C 0 4.02944 4.02944 0 9 0C 13.9706 0 18 4.02944 18 9Z"/>
<path id="path5_fill" d="M 3 1.5C 3 2.32843 2.32843 3 1.5 3C 0.671573 3 0 2.32843 0 1.5C 0 0.671573 0.671573 0 1.5 0C 2.32843 0 3 0.671573 3 1.5Z"/>
<path id="path6_fill" d="M 6.156 4.54C 6.516 4.54 6.816 4.528 7.056 4.504L 7.056 4.744C 6.896 4.784 6.74 4.888 6.588 5.056C 6.436 5.216 6.272 5.468 6.096 5.812L 4.212 9.544L 4.212 11.728C 4.212 12.032 4.236 12.252 4.284 12.388C 4.332 12.524 4.42 12.616 4.548 12.664C 4.684 12.712 4.896 12.744 5.184 12.76L 5.184 13C 4.816 12.976 4.308 12.964 3.66 12.964C 2.972 12.964 2.46 12.976 2.124 13L 2.124 12.76C 2.412 12.744 2.62 12.712 2.748 12.664C 2.884 12.616 2.976 12.524 3.024 12.388C 3.072 12.252 3.096 12.032 3.096 11.728L 3.096 9.928L 0.66 5.428C 0.516 5.164 0.388 4.988 0.276 4.9C 0.172 4.804 0.068 4.756 -0.036 4.756L -0.036 4.504C 0.276 4.528 0.628 4.54 1.02 4.54C 1.796 4.54 2.356 4.528 2.7 4.504L 2.7 4.756C 2.14 4.756 1.86 4.908 1.86 5.212C 1.86 5.332 1.9 5.472 1.98 5.632L 3.972 9.46L 5.508 6.412C 5.724 5.988 5.832 5.644 5.832 5.38C 5.832 5.156 5.744 4.996 5.568 4.9C 5.392 4.804 5.128 4.752 4.776 4.744L 4.776 4.504C 5.232 4.528 5.692 4.54 6.156 4.54ZM 9.56925 6.652C 10.3853 6.652 11.0413 6.924 11.5372 7.468C 12.0412 8.004 12.2932 8.82 12.2932 9.916C 12.2932 11.012 12.0412 11.828 11.5372 12.364C 11.0413 12.9 10.3853 13.168 9.56925 13.168C 8.75325 13.168 8.09325 12.9 7.58925 12.364C 7.09325 11.828 6.84525 11.012 6.84525 9.916C 6.84525 8.82 7.09325 8.004 7.58925 7.468C 8.09325 6.924 8.75325 6.652 9.56925 6.652ZM 9.56925 6.892C 9.08925 6.892 8.70925 7.14 8.42925 7.636C 8.14925 8.124 8.00925 8.884 8.00925 9.916C 8.00925 10.948 8.14925 11.708 8.42925 12.196C 8.70925 12.684 9.08925 12.928 9.56925 12.928C 10.0493 12.928 10.4293 12.684 10.7092 12.196C 10.9892 11.708 11.1293 10.948 11.1293 9.916C 11.1293 8.884 10.9892 8.124 10.7092 7.636C 10.4293 7.14 10.0493 6.892 9.56925 6.892ZM 18.6515 11.704C 18.6515 12.072 18.7195 12.34 18.8555 12.508C 18.9915 12.676 19.2275 12.76 19.5635 12.76L 19.5635 13.012C 19.3155 12.988 19.0675 12.976 18.8195 12.976C 18.3155 12.976 17.8995 13.032 17.5715 13.144L 17.5715 11.728C 17.3795 12.224 17.1075 12.588 16.7555 12.82C 16.4035 13.052 16.0195 13.168 15.6035 13.168C 15.0595 13.168 14.6435 13.016 14.3555 12.712C 14.2115 12.552 14.1075 12.348 14.0435 12.1C 13.9875 11.852 13.9595 11.532 13.9595 11.14L 13.9595 8.128C 13.9595 7.76 13.8915 7.492 13.7555 7.324C 13.6195 7.156 13.3835 7.072 13.0475 7.072L 13.0475 6.82C 13.2955 6.844 13.5435 6.856 13.7915 6.856C 14.2955 6.856 14.7115 6.8 15.0395 6.688L 15.0395 11.404C 15.0395 11.708 15.0555 11.956 15.0875 12.148C 15.1275 12.332 15.2115 12.484 15.3395 12.604C 15.4755 12.724 15.6795 12.784 15.9515 12.784C 16.2555 12.784 16.5315 12.688 16.7795 12.496C 17.0275 12.304 17.2195 12.044 17.3555 11.716C 17.4995 11.38 17.5715 11.012 17.5715 10.612L 17.5715 8.128C 17.5715 7.76 17.5035 7.492 17.3675 7.324C 17.2315 7.156 16.9955 7.072 16.6595 7.072L 16.6595 6.82C 16.9075 6.844 17.1555 6.856 17.4035 6.856C 17.9075 6.856 18.3235 6.8 18.6515 6.688L 18.6515 11.704ZM 23.9081 6.652C 24.2281 6.652 24.4881 6.744 24.6881 6.928C 24.8961 7.112 25.0001 7.336 25.0001 7.6C 25.0001 7.808 24.9361 7.988 24.8081 8.14C 24.6881 8.284 24.5241 8.356 24.3161 8.356C 24.1401 8.356 23.9881 8.3 23.8601 8.188C 23.7401 8.076 23.6801 7.924 23.6801 7.732C 23.6801 7.468 23.8161 7.252 24.0881 7.084C 24.0321 7.004 23.9481 6.964 23.8361 6.964C 23.5241 6.964 23.2401 7.088 22.9841 7.336C 22.7281 7.576 22.5281 7.872 22.3841 8.224C 22.2401 8.576 22.1681 8.908 22.1681 9.22L 22.1681 11.764C 22.1681 12.132 22.2721 12.388 22.4801 12.532C 22.6961 12.676 23.0161 12.748 23.4401 12.748L 23.4401 13L 23.1521 12.988C 22.3361 12.964 21.8161 12.952 21.5921 12.952C 21.3841 12.952 20.9121 12.968 20.1761 13L 20.1761 12.748C 20.5121 12.748 20.7481 12.688 20.8841 12.568C 21.0201 12.44 21.0881 12.212 21.0881 11.884L 21.0881 8.128C 21.0881 7.76 21.0201 7.492 20.8841 7.324C 20.7481 7.156 20.5121 7.072 20.1761 7.072L 20.1761 6.82C 20.4321 6.844 20.6801 6.856 20.9201 6.856C 21.4241 6.856 21.8401 6.8 22.1681 6.688L 22.1681 8.188C 22.3121 7.788 22.5401 7.432 22.8521 7.12C 23.1721 6.808 23.5241 6.652 23.9081 6.652Z"/>
<path id="path7_fill" d="M 4.254 10.62C 4.542 10.62 4.778 10.586 4.962 10.518C 5.15 10.446 5.3 10.352 5.412 10.236C 5.524 10.12 5.602 9.988 5.646 9.84C 5.69 9.688 5.712 9.532 5.712 9.372C 5.712 9.196 5.686 9.038 5.634 8.898C 5.582 8.758 5.498 8.64 5.382 8.544C 5.266 8.444 5.114 8.368 4.926 8.316C 4.742 8.264 4.514 8.238 4.242 8.238L 2.712 8.238L 2.712 10.62L 4.254 10.62ZM 2.712 4.662L 2.712 7.014L 3.894 7.014C 4.146 7.014 4.37 6.994 4.566 6.954C 4.762 6.91 4.926 6.842 5.058 6.75C 5.19 6.658 5.29 6.538 5.358 6.39C 5.43 6.238 5.466 6.056 5.466 5.844C 5.466 5.628 5.436 5.444 5.376 5.292C 5.32 5.14 5.232 5.018 5.112 4.926C 4.992 4.834 4.84 4.768 4.656 4.728C 4.472 4.684 4.254 4.662 4.002 4.662L 2.712 4.662ZM 4.002 3.294C 4.586 3.294 5.084 3.35 5.496 3.462C 5.912 3.57 6.25 3.726 6.51 3.93C 6.774 4.13 6.966 4.374 7.086 4.662C 7.206 4.95 7.266 5.272 7.266 5.628C 7.266 5.828 7.236 6.02 7.176 6.204C 7.12 6.388 7.03 6.562 6.906 6.726C 6.786 6.886 6.63 7.032 6.438 7.164C 6.246 7.296 6.018 7.408 5.754 7.5C 6.346 7.64 6.784 7.868 7.068 8.184C 7.352 8.5 7.494 8.91 7.494 9.414C 7.494 9.782 7.422 10.124 7.278 10.44C 7.138 10.756 6.932 11.03 6.66 11.262C 6.388 11.494 6.052 11.676 5.652 11.808C 5.256 11.936 4.8 12 4.284 12L 0.912 12L 0.912 3.294L 4.002 3.294ZM 10.0896 6.834C 10.2856 6.482 10.5116 6.204 10.7676 6C 11.0236 5.796 11.3236 5.694 11.6676 5.694C 11.9476 5.694 12.1756 5.76 12.3516 5.892L 12.2436 7.116C 12.2236 7.196 12.1916 7.252 12.1476 7.284C 12.1076 7.312 12.0516 7.326 11.9796 7.326C 11.9156 7.326 11.8236 7.318 11.7036 7.302C 11.5836 7.282 11.4716 7.272 11.3676 7.272C 11.2156 7.272 11.0796 7.294 10.9596 7.338C 10.8436 7.382 10.7396 7.444 10.6476 7.524C 10.5556 7.604 10.4716 7.702 10.3956 7.818C 10.3236 7.934 10.2556 8.066 10.1916 8.214L 10.1916 12L 8.53556 12L 8.53556 5.814L 9.51356 5.814C 9.68156 5.814 9.79756 5.844 9.86156 5.904C 9.92556 5.964 9.97156 6.068 9.99956 6.216L 10.0896 6.834ZM 16.2227 9.414C 15.8187 9.434 15.4827 9.47 15.2147 9.522C 14.9467 9.57 14.7327 9.634 14.5727 9.714C 14.4167 9.794 14.3047 9.886 14.2367 9.99C 14.1727 10.09 14.1407 10.2 14.1407 10.32C 14.1407 10.56 14.2067 10.73 14.3387 10.83C 14.4747 10.93 14.6627 10.98 14.9027 10.98C 15.1787 10.98 15.4167 10.932 15.6167 10.836C 15.8207 10.736 16.0227 10.582 16.2227 10.374L 16.2227 9.414ZM 12.8507 6.672C 13.2147 6.344 13.6167 6.1 14.0567 5.94C 14.4967 5.776 14.9727 5.694 15.4847 5.694C 15.8527 5.694 16.1807 5.754 16.4687 5.874C 16.7607 5.994 17.0067 6.162 17.2067 6.378C 17.4107 6.59 17.5667 6.844 17.6747 7.14C 17.7827 7.436 17.8367 7.76 17.8367 8.112L 17.8367 12L 17.0807 12C 16.9247 12 16.8047 11.978 16.7207 11.934C 16.6407 11.89 16.5747 11.798 16.5227 11.658L 16.3907 11.262C 16.2347 11.398 16.0827 11.518 15.9347 11.622C 15.7907 11.726 15.6407 11.814 15.4847 11.886C 15.3287 11.954 15.1607 12.006 14.9807 12.042C 14.8047 12.078 14.6067 12.096 14.3867 12.096C 14.1147 12.096 13.8667 12.06 13.6427 11.988C 13.4187 11.916 13.2247 11.81 13.0607 11.67C 12.9007 11.526 12.7767 11.348 12.6887 11.136C 12.6007 10.924 12.5567 10.68 12.5567 10.404C 12.5567 10.176 12.6147 9.948 12.7307 9.72C 12.8467 9.492 13.0447 9.286 13.3247 9.102C 13.6087 8.914 13.9847 8.76 14.4527 8.64C 14.9247 8.516 15.5147 8.446 16.2227 8.43L 16.2227 8.112C 16.2227 7.724 16.1407 7.44 15.9767 7.26C 15.8127 7.076 15.5767 6.984 15.2687 6.984C 15.0407 6.984 14.8507 7.012 14.6987 7.068C 14.5467 7.12 14.4127 7.178 14.2967 7.242C 14.1847 7.302 14.0787 7.36 13.9787 7.416C 13.8787 7.468 13.7627 7.494 13.6307 7.494C 13.5147 7.494 13.4167 7.466 13.3367 7.41C 13.2607 7.35 13.1967 7.28 13.1447 7.2L 12.8507 6.672ZM 20.6653 6.534C 20.7893 6.414 20.9173 6.304 21.0493 6.204C 21.1853 6.104 21.3273 6.018 21.4753 5.946C 21.6273 5.874 21.7893 5.818 21.9613 5.778C 22.1373 5.738 22.3273 5.718 22.5313 5.718C 22.8673 5.718 23.1653 5.776 23.4253 5.892C 23.6853 6.008 23.9033 6.17 24.0793 6.378C 24.2593 6.586 24.3933 6.834 24.4813 7.122C 24.5733 7.41 24.6193 7.726 24.6193 8.07L 24.6193 12L 22.9693 12L 22.9693 8.07C 22.9693 7.726 22.8893 7.46 22.7293 7.272C 22.5693 7.08 22.3333 6.984 22.0213 6.984C 21.7893 6.984 21.5713 7.034 21.3673 7.134C 21.1633 7.234 20.9693 7.374 20.7853 7.554L 20.7853 12L 19.1293 12L 19.1293 5.814L 20.1493 5.814C 20.3573 5.814 20.4953 5.91 20.5633 6.102L 20.6653 6.534ZM 29.7599 7.422C 29.6039 7.242 29.4339 7.116 29.2499 7.044C 29.0699 6.972 28.8779 6.936 28.6739 6.936C 28.4739 6.936 28.2919 6.974 28.1279 7.05C 27.9639 7.126 27.8219 7.246 27.7019 7.41C 27.5859 7.57 27.4959 7.776 27.4319 8.028C 27.3679 8.28 27.3359 8.58 27.3359 8.928C 27.3359 9.272 27.3619 9.564 27.4139 9.804C 27.4659 10.044 27.5399 10.238 27.6359 10.386C 27.7359 10.534 27.8559 10.642 27.9959 10.71C 28.1359 10.774 28.2919 10.806 28.4639 10.806C 28.7559 10.806 28.9999 10.748 29.1959 10.632C 29.3959 10.516 29.5839 10.352 29.7599 10.14L 29.7599 7.422ZM 31.4159 3.054L 31.4159 12L 30.3959 12C 30.1839 12 30.0479 11.904 29.9879 11.712L 29.8499 11.172C 29.7259 11.308 29.5939 11.432 29.4539 11.544C 29.3179 11.656 29.1699 11.754 29.0099 11.838C 28.8499 11.918 28.6779 11.98 28.4939 12.024C 28.3099 12.068 28.1099 12.09 27.8939 12.09C 27.5619 12.09 27.2579 12.02 26.9819 11.88C 26.7059 11.74 26.4659 11.536 26.2619 11.268C 26.0619 10.996 25.9059 10.664 25.7939 10.272C 25.6819 9.88 25.6259 9.432 25.6259 8.928C 25.6259 8.468 25.6879 8.04 25.8119 7.644C 25.9399 7.248 26.1199 6.906 26.3519 6.618C 26.5839 6.33 26.8639 6.104 27.1919 5.94C 27.5199 5.776 27.8839 5.694 28.2839 5.694C 28.6199 5.694 28.9019 5.744 29.1299 5.844C 29.3619 5.944 29.5719 6.08 29.7599 6.252L 29.7599 3.054L 31.4159 3.054Z"/>
<path id="path8_fill" d="M 9 0L 10.1758 5.76962L 14.7851 2.1056L 11.9771 7.28115L 17.8633 7.43717L 12.3855 9.59695L 16.7942 13.5L 11.2097 11.6334L 12.0782 17.4572L 9 12.4377L 5.92182 17.4572L 6.79029 11.6334L 1.20577 13.5L 5.61453 9.59695L 0.13673 7.43717L 6.02287 7.28115L 3.21491 2.1056L 7.82424 5.76962L 9 0Z"/>
<path id="path9_fill" d="M 0 0L 56 0L 56 61.9406L 0 61.9406L 0 0Z"/>
<path id="path10_fill" d="M 0 0L 26.7715 0L 26.7715 3.53315L 0 3.53315L 0 0Z"/>
<path id="path11_fill" d="M 0 0L 51.987 0L 51.987 3.53315L 0 3.53315L 0 0Z"/>
<path id="path12_fill" d="M 0 0L 50.799 0L 50.799 35.3331L 0 35.3331L 0 0Z"/>
<path id="path13_fill" d="M 1.839 5.589C 1.971 5.577 2.087 5.549 2.187 5.505C 2.287 5.459 2.371 5.401 2.439 5.331C 2.509 5.261 2.561 5.18 2.595 5.088C 2.631 4.994 2.649 4.891 2.649 4.779C 2.649 4.679 2.63 4.593 2.592 4.521C 2.556 4.449 2.506 4.387 2.442 4.335C 2.378 4.281 2.303 4.236 2.217 4.2C 2.131 4.162 2.039 4.127 1.941 4.095L 1.839 5.589ZM 1.74 2.121C 1.61 2.133 1.497 2.159 1.401 2.199C 1.307 2.239 1.229 2.289 1.167 2.349C 1.105 2.409 1.059 2.477 1.029 2.553C 0.999 2.627 0.984 2.705 0.984 2.787C 0.984 2.883 1.001 2.967 1.035 3.039C 1.069 3.109 1.116 3.171 1.176 3.225C 1.236 3.279 1.306 3.326 1.386 3.366C 1.466 3.406 1.553 3.442 1.647 3.474L 1.74 2.121ZM 1.977 3.579C 2.121 3.625 2.263 3.674 2.403 3.726C 2.543 3.778 2.669 3.845 2.781 3.927C 2.893 4.009 2.983 4.112 3.051 4.236C 3.121 4.358 3.156 4.511 3.156 4.695C 3.156 4.875 3.126 5.044 3.066 5.202C 3.006 5.36 2.918 5.499 2.802 5.619C 2.688 5.739 2.547 5.837 2.379 5.913C 2.213 5.987 2.023 6.031 1.809 6.045L 1.773 6.57C 1.771 6.608 1.756 6.641 1.728 6.669C 1.7 6.699 1.665 6.714 1.623 6.714L 1.425 6.714L 1.47 6.039C 1.228 6.015 1.007 5.955 0.807 5.859C 0.609 5.761 0.438 5.637 0.294 5.487L 0.456 5.241C 0.472 5.219 0.492 5.201 0.516 5.187C 0.54 5.173 0.566 5.166 0.594 5.166C 0.632 5.166 0.675 5.185 0.723 5.223C 0.771 5.261 0.83 5.304 0.9 5.352C 0.972 5.4 1.056 5.447 1.152 5.493C 1.25 5.539 1.367 5.57 1.503 5.586L 1.611 3.993C 1.471 3.951 1.333 3.904 1.197 3.852C 1.063 3.8 0.942 3.731 0.834 3.645C 0.728 3.559 0.642 3.452 0.576 3.324C 0.512 3.196 0.48 3.035 0.48 2.841C 0.48 2.695 0.508 2.553 0.564 2.415C 0.622 2.275 0.706 2.151 0.816 2.043C 0.926 1.935 1.061 1.847 1.221 1.779C 1.381 1.709 1.564 1.67 1.77 1.662L 1.8 1.23C 1.802 1.192 1.816 1.158 1.842 1.128C 1.87 1.098 1.906 1.083 1.95 1.083L 2.148 1.083L 2.109 1.674C 2.317 1.7 2.497 1.754 2.649 1.836C 2.803 1.918 2.939 2.018 3.057 2.136L 2.928 2.334C 2.888 2.394 2.842 2.424 2.79 2.424C 2.762 2.424 2.727 2.412 2.685 2.388C 2.645 2.362 2.596 2.332 2.538 2.298C 2.482 2.264 2.415 2.231 2.337 2.199C 2.261 2.167 2.174 2.143 2.076 2.127L 1.977 3.579ZM 5.31947 5.589C 5.45147 5.577 5.56747 5.549 5.66747 5.505C 5.76747 5.459 5.85147 5.401 5.91947 5.331C 5.98947 5.261 6.04147 5.18 6.07547 5.088C 6.11147 4.994 6.12947 4.891 6.12947 4.779C 6.12947 4.679 6.11047 4.593 6.07247 4.521C 6.03647 4.449 5.98647 4.387 5.92247 4.335C 5.85847 4.281 5.78347 4.236 5.69747 4.2C 5.61147 4.162 5.51947 4.127 5.42147 4.095L 5.31947 5.589ZM 5.22047 2.121C 5.09047 2.133 4.97747 2.159 4.88147 2.199C 4.78747 2.239 4.70947 2.289 4.64747 2.349C 4.58547 2.409 4.53947 2.477 4.50947 2.553C 4.47947 2.627 4.46447 2.705 4.46447 2.787C 4.46447 2.883 4.48147 2.967 4.51547 3.039C 4.54947 3.109 4.59647 3.171 4.65647 3.225C 4.71647 3.279 4.78647 3.326 4.86647 3.366C 4.94647 3.406 5.03347 3.442 5.12747 3.474L 5.22047 2.121ZM 5.45747 3.579C 5.60147 3.625 5.74347 3.674 5.88347 3.726C 6.02347 3.778 6.14947 3.845 6.26147 3.927C 6.37347 4.009 6.46347 4.112 6.53147 4.236C 6.60147 4.358 6.63647 4.511 6.63647 4.695C 6.63647 4.875 6.60647 5.044 6.54647 5.202C 6.48647 5.36 6.39847 5.499 6.28247 5.619C 6.16847 5.739 6.02747 5.837 5.85947 5.913C 5.69347 5.987 5.50347 6.031 5.28947 6.045L 5.25347 6.57C 5.25147 6.608 5.23647 6.641 5.20847 6.669C 5.18047 6.699 5.14547 6.714 5.10347 6.714L 4.90547 6.714L 4.95047 6.039C 4.70847 6.015 4.48747 5.955 4.28747 5.859C 4.08947 5.761 3.91847 5.637 3.77447 5.487L 3.93647 5.241C 3.95247 5.219 3.97247 5.201 3.99647 5.187C 4.02047 5.173 4.04647 5.166 4.07447 5.166C 4.11247 5.166 4.15547 5.185 4.20347 5.223C 4.25147 5.261 4.31047 5.304 4.38047 5.352C 4.45247 5.4 4.53647 5.447 4.63247 5.493C 4.73047 5.539 4.84747 5.57 4.98347 5.586L 5.09147 3.993C 4.95147 3.951 4.81347 3.904 4.67747 3.852C 4.54347 3.8 4.42247 3.731 4.31447 3.645C 4.20847 3.559 4.12247 3.452 4.05647 3.324C 3.99247 3.196 3.96047 3.035 3.96047 2.841C 3.96047 2.695 3.98847 2.553 4.04447 2.415C 4.10247 2.275 4.18647 2.151 4.29647 2.043C 4.40647 1.935 4.54147 1.847 4.70147 1.779C 4.86147 1.709 5.04447 1.67 5.25047 1.662L 5.28047 1.23C 5.28247 1.192 5.29647 1.158 5.32247 1.128C 5.35047 1.098 5.38647 1.083 5.43047 1.083L 5.62847 1.083L 5.58947 1.674C 5.79747 1.7 5.97747 1.754 6.12947 1.836C 6.28347 1.918 6.41947 2.018 6.53747 2.136L 6.40847 2.334C 6.36847 2.394 6.32247 2.424 6.27047 2.424C 6.24247 2.424 6.20747 2.412 6.16547 2.388C 6.12547 2.362 6.07647 2.332 6.01847 2.298C 5.96247 2.264 5.89547 2.231 5.81747 2.199C 5.74147 2.167 5.65447 2.143 5.55647 2.127L 5.45747 3.579ZM 8.79994 5.589C 8.93194 5.577 9.04794 5.549 9.14794 5.505C 9.24794 5.459 9.33194 5.401 9.39994 5.331C 9.46994 5.261 9.52194 5.18 9.55594 5.088C 9.59194 4.994 9.60994 4.891 9.60994 4.779C 9.60994 4.679 9.59094 4.593 9.55294 4.521C 9.51694 4.449 9.46694 4.387 9.40294 4.335C 9.33894 4.281 9.26394 4.236 9.17794 4.2C 9.09194 4.162 8.99994 4.127 8.90194 4.095L 8.79994 5.589ZM 8.70094 2.121C 8.57094 2.133 8.45794 2.159 8.36194 2.199C 8.26794 2.239 8.18994 2.289 8.12794 2.349C 8.06594 2.409 8.01994 2.477 7.98994 2.553C 7.95994 2.627 7.94494 2.705 7.94494 2.787C 7.94494 2.883 7.96194 2.967 7.99594 3.039C 8.02994 3.109 8.07694 3.171 8.13694 3.225C 8.19694 3.279 8.26694 3.326 8.34694 3.366C 8.42694 3.406 8.51394 3.442 8.60794 3.474L 8.70094 2.121ZM 8.93794 3.579C 9.08194 3.625 9.22394 3.674 9.36394 3.726C 9.50394 3.778 9.62994 3.845 9.74194 3.927C 9.85394 4.009 9.94394 4.112 10.0119 4.236C 10.0819 4.358 10.1169 4.511 10.1169 4.695C 10.1169 4.875 10.0869 5.044 10.0269 5.202C 9.96694 5.36 9.87894 5.499 9.76294 5.619C 9.64894 5.739 9.50794 5.837 9.33994 5.913C 9.17394 5.987 8.98394 6.031 8.76994 6.045L 8.73394 6.57C 8.73194 6.608 8.71694 6.641 8.68894 6.669C 8.66094 6.699 8.62594 6.714 8.58394 6.714L 8.38594 6.714L 8.43094 6.039C 8.18894 6.015 7.96794 5.955 7.76794 5.859C 7.56994 5.761 7.39894 5.637 7.25494 5.487L 7.41694 5.241C 7.43294 5.219 7.45294 5.201 7.47694 5.187C 7.50094 5.173 7.52694 5.166 7.55494 5.166C 7.59294 5.166 7.63594 5.185 7.68394 5.223C 7.73194 5.261 7.79094 5.304 7.86094 5.352C 7.93294 5.4 8.01694 5.447 8.11294 5.493C 8.21094 5.539 8.32794 5.57 8.46394 5.586L 8.57194 3.993C 8.43194 3.951 8.29394 3.904 8.15794 3.852C 8.02394 3.8 7.90294 3.731 7.79494 3.645C 7.68894 3.559 7.60294 3.452 7.53694 3.324C 7.47294 3.196 7.44094 3.035 7.44094 2.841C 7.44094 2.695 7.46894 2.553 7.52494 2.415C 7.58294 2.275 7.66694 2.151 7.77694 2.043C 7.88694 1.935 8.02194 1.847 8.18194 1.779C 8.34194 1.709 8.52494 1.67 8.73094 1.662L 8.76094 1.23C 8.76294 1.192 8.77694 1.158 8.80294 1.128C 8.83094 1.098 8.86694 1.083 8.91094 1.083L 9.10894 1.083L 9.06994 1.674C 9.27794 1.7 9.45794 1.754 9.60994 1.836C 9.76394 1.918 9.89994 2.018 10.0179 2.136L 9.88894 2.334C 9.84894 2.394 9.80294 2.424 9.75094 2.424C 9.72294 2.424 9.68794 2.412 9.64594 2.388C 9.60594 2.362 9.55694 2.332 9.49894 2.298C 9.44294 2.264 9.37594 2.231 9.29794 2.199C 9.22194 2.167 9.13494 2.143 9.03694 2.127L 8.93794 3.579Z"/>
<path id="path14_fill" d="M 7 3.5C 7 5.433 5.433 7 3.5 7C 1.567 7 0 5.433 0 3.5C 0 1.567 1.567 0 3.5 0C 5.433 0 7 1.567 7 3.5Z"/>
<path id="path15_stroke_2x" d="M 6.5 3.5C 6.5 5.15685 5.15685 6.5 3.5 6.5L 3.5 7.5C 5.70914 7.5 7.5 5.70914 7.5 3.5L 6.5 3.5ZM 3.5 6.5C 1.84315 6.5 0.5 5.15685 0.5 3.5L -0.5 3.5C -0.5 5.70914 1.29086 7.5 3.5 7.5L 3.5 6.5ZM 0.5 3.5C 0.5 1.84315 1.84315 0.5 3.5 0.5L 3.5 -0.5C 1.29086 -0.5 -0.5 1.29086 -0.5 3.5L 0.5 3.5ZM 3.5 0.5C 5.15685 0.5 6.5 1.84315 6.5 3.5L 7.5 3.5C 7.5 1.29086 5.70914 -0.5 3.5 -0.5L 3.5 0.5Z"/>
<path id="path16_fill" d="M 3.18 4.188L 1.956 4.188L 1.956 5.478L 1.521 5.478L 1.521 4.188L 0.303 4.188L 0.303 3.783L 1.521 3.783L 1.521 2.502L 1.956 2.502L 1.956 3.783L 3.18 3.783L 3.18 4.188Z"/>
</defs>
</svg>
