<svg width="88" height="104" viewBox="0 0 88 104" version="1.1" xmlns="http://www.w3.org/2000/svg" xmlns:xlink="http://www.w3.org/1999/xlink">
<title>logodesign</title>
<desc>Created using Figma</desc>
<g id="Canvas" transform="translate(-297 -1075)">
<g id="logodesign">
<g id="Vector">
<use xlink:href="#path0_fill" transform="translate(309.632 1093.14)" fill="#4D4D4D"/>
</g>
<g id="Vector">
<use xlink:href="#path1_fill" transform="translate(372.431 1099.67)" fill="#4D4D4D"/>
</g>
<g id="Vector">
<use xlink:href="#path2_fill" transform="translate(358.456 1081.48)" fill="#4D4D4D"/>
</g>
<g id="Vector">
<use xlink:href="#path3_fill" transform="translate(338.912 1075)" fill="#4D4D4D"/>
</g>
<g id="Vector">
<use xlink:href="#path4_fill" transform="translate(314.806 1080.81)" fill="#4D4D4D"/>
</g>
<g id="Vector">
<use xlink:href="#path5_fill" transform="translate(297 1099.02)" fill="#4D4D4D"/>
</g>
<g id="Vector">
<use xlink:href="#path6_fill" transform="translate(316.802 1102.08)" fill="#4D4D4D"/>
</g>
<g id="Vector">
<use xlink:href="#path7_fill" transform="translate(326.749 1106.01)" fill="#4D4D4D"/>
</g>
</g>
</g>
<defs>
<path id="path0_fill" d="M 14.4822 5.18313C 3.48217 12.0831 -3.11783 27.2831 1.48217 39.7831C 2.98217 43.8831 4.88217 47.7831 7.38217 51.3831C 8.68217 53.1831 10.1822 54.7831 11.6822 56.4831C 13.8822 58.9831 14.5822 60.8831 15.3822 63.9831C 15.6822 65.2831 16.0822 66.0831 16.6822 66.6831C 15.6822 67.7831 15.3822 69.2831 16.1822 70.5831C 14.2822 73.0831 15.0822 74.6831 17.1822 75.5831C 13.9822 80.3831 20.6822 81.3831 26.8822 81.4831C 26.9822 82.4831 27.0822 83.4831 27.4822 84.2831C 28.0822 85.4831 29.7822 85.6831 30.9822 85.6831C 32.3822 85.6831 34.2822 85.5831 35.4822 84.7831C 36.5822 84.0831 36.8822 82.4831 36.9822 81.1831C 40.4822 81.2831 45.8822 81.5831 47.6822 79.2831C 48.7822 77.8831 48.2822 76.5831 47.2822 75.6831C 48.9822 74.7831 49.6822 73.2831 48.2822 71.0831C 49.0822 69.8831 48.5822 68.3831 47.3822 67.0831C 47.5822 66.7831 47.8822 66.4831 48.0822 65.9831C 48.8822 64.2831 48.3822 62.4831 48.7822 60.6831C 49.3822 57.9831 51.1822 56.5831 52.5822 54.4831C 54.6822 51.2831 57.6822 48.1831 59.3822 44.7831C 64.8822 33.5831 62.5822 17.9831 53.8822 9.08313C 43.2822 -1.71688 27.1822 -2.71687 14.4822 5.18313ZM 29.0822 27.6831C 29.3822 25.8831 30.3822 24.7831 32.0822 24.4831C 33.2822 25.4831 33.7822 26.6831 33.3822 28.1831C 33.4822 29.8831 32.6822 31.4831 31.3822 32.6831C 29.9822 31.3831 28.8822 29.5831 29.0822 27.6831ZM 31.2822 35.7831C 32.8822 37.0831 34.7822 38.1831 36.5822 38.6831C 34.0822 47.2831 34.6822 57.6831 35.1822 66.1831C 34.0822 66.1831 33.0822 66.0831 32.1822 66.0831C 30.7822 66.0831 29.3822 66.0831 27.9822 65.9831C 27.8822 62.2831 28.2822 48.0831 25.9822 38.2831C 27.8822 37.6831 29.7822 36.7831 31.2822 35.7831ZM 32.1822 69.0831C 35.7822 69.0831 39.4822 68.8831 43.0822 68.5831C 43.9822 68.4831 44.7822 68.3831 45.4822 68.1831C 47.6822 70.3831 41.2822 70.8831 39.6822 70.9831C 37.2822 71.0831 34.7822 70.9831 32.2822 70.9831C 29.9822 70.8831 27.7822 70.8831 25.4822 70.6831C 23.9822 70.5831 15.9822 69.5831 18.6822 67.8831C 18.9822 67.9831 19.2822 67.9831 19.5822 68.0831C 23.6822 68.7831 27.9822 69.0831 32.1822 69.0831ZM 44.8822 74.3831C 43.9822 74.4831 43.0822 74.5831 42.1822 74.6831C 41.0822 74.7831 39.9822 74.7831 38.7822 74.8831C 36.2822 74.9831 33.7822 74.8831 31.2822 74.8831C 29.2822 74.8831 27.1822 74.8831 25.1822 74.7831C 24.5822 74.7831 16.9822 74.4831 17.8822 72.2831C 21.1822 73.7831 27.0822 73.1831 29.8822 73.2831C 34.6822 73.4831 40.8822 74.3831 45.5822 72.7831C 45.3822 73.1831 45.0822 73.7831 44.8822 74.3831ZM 33.8822 82.9831C 33.0822 83.2831 31.8822 83.3831 30.9822 83.3831C 30.5822 83.3831 30.0822 83.4831 29.6822 83.2831C 29.3822 83.0831 29.5822 83.3831 29.3822 82.9831C 29.1822 82.6831 29.0822 82.0831 28.9822 81.4831C 31.5822 81.3831 33.7822 81.1831 34.6822 81.1831C 34.6822 81.8831 34.4822 82.6831 33.8822 82.9831ZM 44.8822 76.5831C 44.1822 78.1831 42.9822 78.7831 41.4822 78.5831C 40.2822 78.6831 39.1822 78.6831 37.9822 78.7831C 35.9822 78.8831 34.0822 78.9831 32.0822 79.0831C 30.5822 79.1831 17.0822 79.5831 19.2822 76.4831C 19.2822 76.3831 19.3822 76.3831 19.3822 76.2831C 23.5822 77.1831 29.4822 76.9831 31.3822 76.9831C 33.0822 77.0831 40.0822 77.5831 44.8822 76.5831C 44.7822 76.4831 44.7822 76.4831 44.8822 76.5831ZM 58.4822 36.7831C 57.6822 40.7831 56.7822 43.3831 54.1822 46.7831C 52.0822 49.5831 49.9822 52.3831 48.0822 55.2831C 47.1822 56.7831 46.2822 58.1831 45.8822 59.8831C 45.2822 62.2831 46.1822 64.3831 43.0822 65.6831C 41.5822 66.2831 39.4822 66.3831 37.3822 66.2831C 36.8822 57.6831 36.3822 47.6831 38.7822 39.1831C 43.0822 39.5831 49.3822 37.6831 48.2822 32.5831C 46.6822 25.2831 39.8822 30.4831 37.9822 34.5831C 37.6822 35.1831 37.3822 35.8831 37.1822 36.4831C 36.2822 36.1831 35.3822 35.7831 34.7822 35.4831C 34.2822 35.1831 33.6822 34.7831 33.0822 34.3831C 36.2822 31.4831 37.5822 27.6831 34.2822 23.8831C 31.5822 20.7831 27.6822 22.8831 26.8822 26.7831C 26.2822 29.4831 27.5822 32.2831 29.5822 34.3831C 28.2822 35.2831 26.7822 35.8831 25.2822 36.2831C 23.5822 30.4831 20.7822 26.8831 15.9822 29.2831C 13.1822 30.6831 13.5822 34.5831 15.3822 36.5831C 17.4822 38.9831 20.5822 39.3831 23.6822 38.8831C 24.5822 42.8831 24.4822 47.0831 24.7822 51.1831C 25.0822 56.0831 25.2822 61.0831 25.5822 65.9831C 24.1822 65.8831 22.7822 65.6831 21.4822 65.3831C 19.3822 64.8831 18.9822 64.9831 18.0822 62.6831C 17.4822 61.1831 17.5822 59.5831 16.8822 58.0831C 15.0822 54.5831 11.2822 51.9831 9.08218 48.6831C 6.68218 44.9831 4.28217 40.4831 3.38217 36.1831C 1.88217 29.2831 4.18217 21.9831 7.88217 16.2831C 13.2822 7.98314 21.6822 3.88313 31.4822 3.08313C 40.3822 2.38313 49.4822 7.08313 54.4822 14.5831C 58.7822 21.1831 60.0822 29.0831 58.4822 36.7831ZM 39.4822 36.9831C 39.4822 36.8831 39.5822 36.6831 39.5822 36.5831C 40.1822 34.8831 40.9822 33.4831 42.2822 32.1831C 46.2822 30.7831 46.9822 32.0831 44.4822 35.8831C 43.2822 37.0831 41.3822 37.2831 39.4822 36.9831ZM 23.1822 36.5831C 22.4822 36.6831 21.8822 36.6831 21.2822 36.5831C 19.7822 36.4831 14.6822 34.7831 16.2822 31.9831C 18.4822 28.0831 22.2822 33.9831 22.8822 35.7831C 23.0822 36.0831 23.1822 36.3831 23.1822 36.5831Z"/>
<path id="path1_fill" d="M 10.184 0.151055C 6.98404 1.65105 3.58404 2.95105 0.68404 5.05105C -0.91596 6.15105 0.58404 8.75105 2.18404 7.65105C 5.08404 5.55105 8.38404 4.25106 11.684 2.75106C 13.484 1.95106 11.984 -0.648945 10.184 0.151055Z"/>
<path id="path2_fill" d="M 2.4583 11.3478C 4.6583 8.54782 6.35831 5.44782 8.15831 2.24782C 9.05831 0.547819 6.55831 -0.952181 5.55831 0.747819C 3.95831 3.64782 2.35829 6.64782 0.358294 9.24782C -0.841706 10.6478 1.2583 12.8478 2.4583 11.3478Z"/>
<path id="path3_fill" d="M 3.00244 11.525C 3.20244 8.12499 3.30246 4.72501 3.30246 1.42501C 3.30246 -0.474988 0.302457 -0.474988 0.302457 1.42501C 0.302457 4.82501 0.202439 8.22499 0.00243904 11.525C -0.097561 13.425 2.90244 13.425 3.00244 11.525Z"/>
<path id="path4_fill" d="M 6.00815 11.9146C 7.10815 13.5146 9.70815 12.0146 8.60815 10.4146C 6.60815 7.41462 4.30815 4.41463 3.00815 1.01463C 2.30815 -0.785374 -0.591846 0.014614 0.108154 1.81461C 1.50815 5.51461 3.80815 8.71462 6.00815 11.9146Z"/>
<path id="path5_fill" d="M 11.4146 5.40817C 8.41461 3.20817 5.21461 1.50815 1.81461 0.108154C 0.0146079 -0.591846 -0.78538 2.30815 1.01462 3.00815C 4.21462 4.30815 7.11461 6.00815 9.91461 8.00815C 11.4146 9.10815 12.9146 6.50817 11.4146 5.40817Z"/>
<path id="path6_fill" d="M 14.3128 0.0483761C 7.31284 2.04838 1.01283 9.64839 0.0128258 16.8484C -0.187174 18.2484 2.01284 18.8484 2.21284 17.4484C 3.11284 11.0484 8.61285 4.14839 14.9129 2.24839C 16.3129 1.84839 15.7128 -0.351624 14.3128 0.0483761Z"/>
<path id="path7_fill" d="M 5.76592 0.0128258C 3.66592 0.312826 1.56592 1.81283 0.265918 3.51283C -0.634082 4.61283 0.965924 6.21283 1.86592 5.11283C 2.96592 3.71283 4.46592 2.51284 6.36592 2.21284C 7.76592 2.01284 7.16592 -0.187174 5.76592 0.0128258Z"/>
</defs>
</svg>
