<svg width="100" height="79" viewBox="0 0 100 79" version="1.1" xmlns="http://www.w3.org/2000/svg" xmlns:xlink="http://www.w3.org/1999/xlink">
<title>webdesign</title>
<desc>Created using Figma</desc>
<g id="Canvas" transform="translate(-285 -758)">
<g id="webdesign">
<g id="Vector">
<use xlink:href="#path0_fill" transform="translate(285 758)" fill="#333333"/>
</g>
<g id="Vector">
<use xlink:href="#path1_fill" transform="translate(292.979 763.6)" fill="#333333"/>
</g>
<g id="Vector">
<use xlink:href="#path2_fill" transform="translate(302.527 763.295)" fill="#333333"/>
</g>
<g id="Vector">
<use xlink:href="#path3_fill" transform="translate(312.228 762.9)" fill="#333333"/>
</g>
<g id="Vector">
<use xlink:href="#path4_fill" transform="translate(294.483 783.355)" fill="#333333"/>
</g>
<g id="Vector">
<use xlink:href="#path5_fill" transform="translate(345.298 783.453)" fill="#333333"/>
</g>
<g id="Vector">
<use xlink:href="#path6_fill" transform="translate(325.735 783.297)" fill="#333333"/>
</g>
</g>
</g>
<defs>
<path id="path0_fill" d="M 98.5309 36.8C 98.3309 31.7 98.4309 26.5 98.5309 21.4C 98.6309 18.1 98.6309 14.9 98.4309 11.6C 98.3309 9 98.7309 5.7 98.0309 3.1C 97.3309 0.6 95.3309 0.399997 93.0309 0.299997C 86.9309 -3.06964e-06 80.8309 0.300006 74.7309 0.200006C 61.131 0.100006 47.6309 0.0999939 34.0309 -6.10352e-06C 26.9309 -6.10352e-06 19.8309 0.2 12.6309 0.6C 10.0309 0.8 5.73095 0.3 3.73095 2.1C 2.33095 3.3 2.13095 5.2 1.83095 6.9C 1.13095 10.6 1.03093 14.5 0.930928 18.3C 0.630928 26.6 0.730946 34.8 0.230946 43.1C -0.169054 49.8 0.0309462 56.5 0.230946 63.1C 0.330946 66.8 -0.869048 72.9 2.33095 75.7C 5.63095 78.6 12.5309 77.4 16.4309 77.5C 23.6309 77.7 30.7309 77.9 37.9309 78C 51.3309 78.2 64.7309 77.7 78.1309 78.2C 83.2309 78.4 88.9309 78.2 93.9309 77.3C 96.9309 76.8 97.8309 75 98.1309 72.1C 99.6309 60.7 98.8309 48.6 98.5309 36.8ZM 8.93093 4.1C 10.2309 4 11.4309 3.9 12.7309 3.9C 17.9309 3.6 23.1309 3.3 28.4309 3.3C 39.6309 3.2 50.9309 3.3 62.1309 3.4C 66.9309 3.4 71.8309 3.39999 76.6309 3.49999C 81.7309 3.49999 87.231 2.9 92.331 3.6C 94.731 3.9 94.8309 4.09999 95.2309 6.49999C 95.631 8.69999 95.5309 11.3 95.5309 13.6C 95.5309 13.9 95.5309 14.3 95.5309 14.6C 65.1309 13.5 34.6309 13.4 4.23095 14.3C 4.33095 12.6 4.53095 10.9 4.73095 9.20001C 5.13095 5.70001 5.73093 4.4 8.93093 4.1ZM 95.831 59.1C 95.731 63.2 95.8309 67.4 95.4309 71.5C 95.2309 74.5 93.9309 74.3 91.2309 74.8C 88.4309 75.3 85.531 75.6 82.7309 75.7C 72.2309 75.9 61.6309 75.5 51.0309 75.5C 38.5309 75.5 26.1309 75.2 13.7309 74.8C 9.83095 74.7 3.83093 75.2 3.53093 70.2C 3.43093 67.4 3.43095 64.5 3.33095 61.7C 3.13095 55.6 2.93095 49.5 3.33095 43.5C 3.93095 34.6 3.63094 25.5 4.13094 16.6C 34.6309 15.7 65.1309 15.8 95.6309 16.9C 95.6309 21.1 95.4309 25.4 95.4309 29.6C 95.3309 39.3 96.131 49.1 95.831 59.1Z"/>
<path id="path1_fill" d="M 3.65148 6.7C 5.45148 6.5 7.45148 5.4 7.05148 3.3C 6.75148 1.4 5.45148 0.1 3.55148 2.84217e-14C 1.65148 2.84217e-14 0.351478 1.8 0.0514776 3.5C -0.348522 5.7 1.65148 6.9 3.65148 6.7ZM 2.25149 3.7C 2.45149 3.1 2.85147 2.3 3.45147 2.3C 4.05147 2.3 4.45148 2.6 4.65148 3.2C 4.95148 4.1 4.45148 4.3 3.55148 4.5C 3.15148 4.6 2.85147 4.59999 2.45147 4.39999C 2.15147 4.19999 2.15149 4.1 2.25149 3.7Z"/>
<path id="path2_fill" d="M 3.5042 6.9054C 5.6042 7.1054 7.10421 5.5054 7.30421 3.6054C 7.50421 1.5054 5.90419 0.105391 3.90419 0.0053911C 2.10419 -0.0946089 0.104196 1.2054 0.00419551 3.1054C -0.0958045 5.1054 1.6042 6.7054 3.5042 6.9054ZM 2.30421 3.1054C 2.50421 2.4054 3.30419 2.20539 3.90419 2.20539C 4.60419 2.20539 5.1042 2.60539 5.0042 3.30539C 4.9042 4.10539 4.4042 4.7054 3.5042 4.6054C 2.8042 4.5054 2.10421 3.9054 2.30421 3.1054Z"/>
<path id="path3_fill" d="M 3.90344 7.09999C 5.70344 6.99999 7.30344 5.4 7.40344 3.5C 7.40344 1.6 5.60343 3.05176e-06 3.70343 3.05176e-06C 1.70343 0.100003 0.203444 1.80001 0.00344391 3.80001C -0.0965561 6.00001 2.00344 7.29999 3.90344 7.09999ZM 3.70343 2.30001C 5.30343 2.20001 5.60344 4.50001 3.90344 4.80001C 3.30344 4.90001 2.30343 4.6 2.20343 3.9C 2.20343 3.2 3.00343 2.40001 3.70343 2.30001Z"/>
<path id="path4_fill" d="M 27.6481 1.14472C 24.5481 -1.35528 20.1482 0.744715 17.3482 2.64472C 12.1482 6.24472 7.74816 10.8447 2.84816 14.8447C -4.65184 21.4447 4.44814 28.6447 9.64814 32.5447C 13.1481 35.1447 17.4482 38.8447 21.7481 40.1447C 24.6481 40.9447 29.0481 39.8447 29.2481 36.2447C 29.4482 32.6447 23.9481 29.1447 21.5481 27.0447C 20.0481 25.7447 18.5481 24.5447 16.9481 23.4447C 16.2481 22.9447 15.5482 22.5447 14.8482 22.0447C 13.3482 21.0447 12.7481 21.2447 13.6481 19.7447C 16.0481 16.0447 34.8481 7.04472 27.6481 1.14472ZM 11.1481 22.3447C 12.8481 24.4447 16.4481 25.8447 18.5481 27.6447C 20.1481 28.9447 21.7481 30.4447 23.2481 31.9447C 23.8482 32.5447 25.7481 33.7447 26.0481 34.6447C 27.3481 38.8447 23.9482 38.5447 21.8482 37.8447C 22.0482 37.7447 22.2481 37.5447 22.4481 37.4447C 22.9481 37.0447 23.1482 36.4447 22.8482 35.9447C 22.5482 35.4447 21.8482 35.1447 21.3482 35.5447C 20.9482 35.8447 20.4481 36.2447 20.0481 36.5447C 19.8481 36.6447 19.7481 36.8447 19.6481 36.9447C 19.1481 36.7447 18.7481 36.4447 18.2481 36.1447C 18.4482 36.0447 18.5481 35.9447 18.7481 35.8447C 19.9482 35.1447 18.8481 33.1447 17.6481 33.9447C 17.1481 34.2447 16.7481 34.5447 16.2481 34.9447C 15.6481 34.5447 15.1481 34.1447 14.5481 33.7447C 14.8481 33.5447 15.1481 33.4447 15.4481 33.2447C 16.7481 32.5447 15.5482 30.6447 14.3482 31.3447C 13.7482 31.6447 13.1481 31.9447 12.5481 32.2447C 12.1481 31.9447 11.8481 31.6447 11.4481 31.4447C 11.6481 31.3447 11.8481 31.2447 12.0481 31.0447C 13.3481 30.3447 12.1481 28.3447 10.9481 29.1447C 10.4481 29.4447 10.0481 29.7447 9.64814 30.0447C 9.14814 29.6447 8.54814 29.2447 8.04814 28.7447C 8.34814 28.5447 8.64813 28.3447 8.94813 28.1447C 9.44813 27.8447 9.64816 27.1447 9.34816 26.6447C 9.04816 26.0447 8.34816 25.9447 7.84816 26.2447C 7.24816 26.5447 6.74815 26.9447 6.24815 27.3447C 5.84815 26.9447 5.44814 26.6447 5.04814 26.2447C 5.44814 26.0447 5.74814 25.7447 6.14814 25.5447C 7.34814 24.7447 6.24814 22.8447 5.04814 23.6447C 4.54814 23.9447 4.14814 24.2447 3.64814 24.5447C 3.14814 23.8447 2.74813 23.0447 2.44813 22.2447C 2.84813 22.2447 3.14814 22.2447 3.54814 22.2447C 4.94814 22.2447 5.04814 20.0447 3.54814 20.0447C 3.14814 20.0447 2.74816 20.0447 2.34816 20.0447C 2.44816 19.3447 2.84816 18.6447 3.34816 17.9447C 3.74816 18.3447 4.14814 18.8447 4.64814 19.1447C 5.14814 19.5447 5.94814 19.2447 6.14814 18.7447C 6.44814 18.1447 6.24815 17.5447 5.74815 17.2447C 5.94815 17.3447 5.54814 17.0447 5.54814 17.0447C 5.44814 16.9447 5.24814 16.7447 5.14814 16.6447C 5.04814 16.5447 4.94813 16.4447 4.94813 16.4447C 5.34813 16.1447 5.74814 15.8447 6.04814 15.5447C 6.44814 15.9447 6.94815 16.4447 7.24815 16.8447C 7.64815 17.3447 8.44816 17.2447 8.84816 16.8447C 9.34816 16.3447 9.24816 15.7447 8.84816 15.2447C 8.54816 14.8447 8.14815 14.4447 7.74815 14.0447C 8.24815 13.5447 8.84816 13.0447 9.34816 12.5447C 9.74816 12.9447 10.2481 13.3447 10.6481 13.7447C 11.6481 14.7447 13.2482 13.1447 12.2482 12.1447C 11.8482 11.7447 11.4481 11.4447 11.0481 11.0447C 11.6481 10.5447 12.2481 9.94473 12.9481 9.44473C 13.3481 9.94473 13.7481 10.3447 14.1481 10.8447C 15.1481 11.9447 16.7481 10.3447 15.7482 9.24472C 15.3482 8.84472 14.9481 8.54471 14.6481 8.14472C 14.9481 7.94472 15.2481 7.74471 15.5481 7.54471C 15.9481 7.24471 16.3482 6.94472 16.7481 6.64472C 16.9482 6.94472 17.1482 7.24471 17.3482 7.54471C 17.7482 8.04471 18.3482 8.24473 18.8482 7.94473C 19.3482 7.64473 19.6481 6.94473 19.2481 6.44473C 18.9482 6.04473 18.7481 5.74473 18.4481 5.34473C 18.9481 4.94473 19.4481 4.64473 20.0481 4.34473L 20.1481 4.44473C 20.4481 4.74473 20.8481 5.14473 21.1481 5.44473C 22.1481 6.44473 23.7481 4.84473 22.7481 3.84473C 22.5481 3.64473 22.3481 3.44472 22.1481 3.24472C 23.5481 2.74472 24.7481 2.74473 25.6481 4.44473C 26.8481 6.64473 25.5481 7.14472 24.1481 8.64472C 20.4481 12.4447 15.6481 15.0447 11.9481 18.7447C 10.4481 19.4447 9.84814 20.7447 11.1481 22.3447Z"/>
<path id="path5_fill" d="M 19.6329 7.84731C 16.1329 5.24731 11.8329 1.5473 7.53293 0.247301C 4.63293 -0.552699 0.232929 0.547295 0.0329292 4.14729C -0.167071 7.74729 5.33291 11.2473 7.73291 13.3473C 9.23291 14.6473 10.7329 15.8473 12.3329 16.9473C 13.0329 17.4473 13.7329 17.8473 14.4329 18.3473C 15.9329 19.3473 16.5329 19.1473 15.6329 20.6473C 13.2329 24.4473 -5.56709 33.4473 1.6329 39.2473C 4.7329 41.7473 9.13292 39.6473 11.9329 37.7473C 17.1329 34.1473 21.5329 29.5473 26.4329 25.5473C 34.0329 18.9473 24.8329 11.7473 19.6329 7.84731ZM 24.8329 23.9473C 21.0329 27.0473 17.7329 30.5473 13.7329 33.4473C 12.0329 34.6473 10.4329 36.2473 8.53293 37.1473C 6.53293 38.1473 4.73293 38.9473 3.53293 36.6473C 3.03293 35.7473 3.03291 35.0473 3.23291 34.5473C 3.73291 34.9473 4.33292 35.4473 4.83292 35.8473C 5.33292 36.2473 6.13292 35.9473 6.33292 35.4473C 6.63292 34.8473 6.43292 34.2473 5.93292 33.9473C 5.43292 33.6473 5.03291 33.2473 4.63291 32.9473C 4.7329 32.8473 4.93293 32.6473 5.03293 32.5473C 5.33293 32.2473 5.73293 31.8473 6.03293 31.5473C 6.53293 32.0473 6.93292 32.5473 7.43292 32.9473C 7.93292 33.3473 8.53293 33.4473 9.03293 32.9473C 9.43293 32.5473 9.53293 31.7473 9.03293 31.3473C 8.53293 30.9473 8.13291 30.4473 7.73291 30.0473C 8.23291 29.6473 8.83292 29.1473 9.33292 28.7473C 9.83292 29.3473 10.2329 29.9473 10.7329 30.4473C 11.7329 31.4473 13.3329 29.8473 12.3329 28.8473C 11.8329 28.3473 11.4329 27.8473 11.0329 27.3473C 11.5329 27.0473 11.9329 26.6473 12.4329 26.3473C 12.8329 26.7473 13.2329 27.1473 13.6329 27.6473C 14.0329 28.1473 14.8329 28.0473 15.2329 27.6473C 15.7329 27.1473 15.6329 26.5473 15.2329 26.0473C 14.9329 25.6473 14.6329 25.3473 14.2329 24.9473C 14.8329 24.4473 15.4329 23.9473 15.9329 23.4473C 16.2329 23.6473 16.5329 23.8473 16.7329 24.1473C 17.7329 25.2473 19.3329 23.6473 18.3329 22.5473C 18.1329 22.3473 17.8329 22.0473 17.6329 21.8473C 18.0329 21.3473 18.3329 20.9473 18.4329 20.4473C 18.9329 20.4473 19.3329 20.5473 19.8329 20.5473C 20.4329 20.5473 20.9329 20.0473 20.9329 19.4473C 20.9329 18.8473 20.4329 18.3473 19.8329 18.3473C 19.1329 18.3473 18.5329 18.2473 17.8329 18.2473C 17.5329 17.8473 17.2329 17.5473 16.8329 17.2473C 17.2329 17.0473 17.5329 16.9473 17.9329 16.7473C 18.4329 16.4473 18.6329 15.7473 18.3329 15.2473C 18.0329 14.6473 17.3329 14.5473 16.8329 14.8473C 16.1329 15.1473 15.4329 15.4473 14.8329 15.8473C 14.4329 15.6473 14.1329 15.4473 13.7329 15.1473C 14.0329 15.0473 14.3329 14.8473 14.6329 14.7473C 15.1329 14.4473 15.3329 13.7473 15.0329 13.2473C 14.7329 12.6473 14.0329 12.5473 13.5329 12.8473C 12.9329 13.1473 12.3329 13.4473 11.7329 13.7473C 11.6329 13.7473 11.6329 13.8473 11.6329 13.8473C 11.2329 13.6473 10.9329 13.3473 10.6329 13.1473C 10.5329 13.0473 10.3329 12.9473 10.2329 12.8473C 10.6329 12.6473 11.1329 12.3473 11.5329 12.1473C 12.1329 11.8473 12.2329 11.1473 11.9329 10.6473C 11.6329 10.0473 10.9329 9.9473 10.4329 10.2473C 9.73292 10.5473 9.13293 10.9473 8.53293 11.2473C 8.13293 10.8473 7.63291 10.4473 7.23291 10.0473C 7.43291 9.84729 7.73293 9.7473 8.03293 9.64729C 8.63293 9.4473 9.03292 8.9473 8.83292 8.2473C 8.73292 7.7473 8.03292 7.24728 7.43292 7.44728C 6.73292 7.74728 6.13291 8.04728 5.63291 8.44728C 5.3329 8.14728 4.93293 7.94729 4.53293 7.54729C 4.83293 7.34729 5.13292 7.04728 5.43292 6.94728C 6.73292 6.24728 5.53292 4.34729 4.33292 5.04729C 3.93292 5.24729 3.53291 5.54731 3.23291 5.84731C 2.23291 1.84731 5.93292 2.3473 7.93292 3.14729C 11.9329 4.64729 15.8329 7.94729 19.2329 10.5473C 23.0329 13.1473 30.9329 18.6473 24.8329 23.9473Z"/>
<path id="path6_fill" d="M 11.6963 0.00252675C 8.39632 -0.0974733 7.39634 2.8025 6.49634 5.6025C 4.49634 11.7025 2.89632 18.0025 1.69632 24.3025C 1.09632 27.6025 -3.10366 41.8025 4.49634 40.9025C 7.49634 40.6025 9.29633 37.4025 10.2963 34.9025C 12.2963 29.6025 13.2963 23.8025 14.4963 18.3025C 15.0963 15.6025 15.5963 12.9025 16.0963 10.2025C 16.4963 8.40251 17.3963 6.0025 17.1963 4.1025C 16.7963 1.1025 14.4963 0.00252675 11.6963 0.00252675ZM 11.5963 20.9025C 10.9963 23.4025 10.3963 25.8025 9.79633 28.2025C 8.99633 31.3025 8.29634 37.5025 4.49634 37.4025C 2.39634 37.3025 2.29634 37.1025 2.39634 35.8025C 2.69634 35.8025 2.89632 35.9025 3.19632 36.0025C 3.79632 36.2025 4.39635 35.8025 4.59635 35.2025C 4.79635 34.6025 4.39633 34.0025 3.79633 33.8025C 3.39633 33.7025 2.99634 33.6025 2.49634 33.5025C 2.49634 33.1025 2.59632 32.7025 2.69632 32.3025C 3.19632 32.4025 3.69632 32.5025 4.19632 32.5025C 5.59632 32.5025 5.59632 30.3025 4.19632 30.3025C 3.79632 30.3025 3.39634 30.2025 2.99634 30.2025C 2.99634 30.0025 3.09635 29.7025 3.09635 29.5025C 3.09635 29.4025 3.09632 29.3025 3.19632 29.1025C 3.69632 29.2025 4.19632 29.2025 4.69632 29.4025C 6.09632 29.8025 6.69633 27.6025 5.29633 27.2025C 4.69633 27.1025 4.19635 27.0025 3.59635 26.9025C 3.69635 26.2025 3.79634 25.6025 3.89634 24.9025C 4.49634 25.0025 5.19633 25.1025 5.79633 25.4025C 6.39633 25.6025 6.99632 25.2025 7.19632 24.6025C 7.39632 24.0025 6.99634 23.4025 6.39634 23.2025C 5.69634 23.0025 5.09634 22.8025 4.39634 22.7025C 4.49634 22.2025 4.59632 21.7025 4.69632 21.2025C 5.19632 21.3025 5.69632 21.4025 6.19632 21.6025C 7.59632 21.9025 8.19633 19.8025 6.79633 19.4025C 6.19633 19.3025 5.69635 19.1025 5.09635 19.0025C 5.19635 18.5025 5.29634 18.0025 5.39634 17.4025C 5.79634 17.5025 6.09634 17.6025 6.49634 17.7025C 7.89634 18.1025 8.49635 15.9025 7.09635 15.5025C 6.69635 15.4025 6.29634 15.3025 5.89634 15.2025C 5.99634 14.9025 5.99635 14.6025 6.09635 14.3025C 6.69635 14.4025 7.39634 14.6025 7.99634 14.7025C 8.59634 14.8025 9.19634 14.5025 9.39634 13.9025C 9.59634 13.3025 9.19635 12.6025 8.59635 12.5025C 7.89635 12.4025 7.29635 12.2025 6.59635 12.1025C 6.69635 11.7025 6.79634 11.2025 6.89634 10.8025C 7.29634 10.9025 7.79632 11.0025 8.19632 11.1025C 9.59632 11.5025 10.1963 9.30252 8.79633 8.90252C 8.39633 8.80252 7.89634 8.7025 7.49634 8.6025C 7.59634 8.3025 7.69633 8.00251 7.79633 7.80251C 8.19633 7.90251 8.59634 8.0025 8.99634 8.1025C 9.59634 8.3025 10.1963 7.90251 10.3963 7.30251C 10.5963 6.70251 10.1963 6.10252 9.59635 5.90252C 9.29635 5.80252 8.89635 5.7025 8.59635 5.6025C 8.69635 5.3025 8.89634 5.00251 8.99634 4.70251C 9.29634 4.90251 9.69635 5.00253 10.0963 5.00253C 10.6963 5.10253 11.2963 4.90251 11.4963 4.20251C 11.5963 3.70251 11.2963 2.90251 10.6963 2.80251C 10.5963 2.80251 10.4963 2.70251 10.2963 2.70251C 10.6963 2.30251 11.1963 2.1025 11.5963 2.1025C 16.9963 2.4025 12.1963 18.3025 11.5963 20.9025Z"/>
</defs>
</svg>
