<svg width="347" height="347" viewBox="0 0 347 347" version="1.1" xmlns="http://www.w3.org/2000/svg" xmlns:xlink="http://www.w3.org/1999/xlink">
<title>webdesign</title>
<desc>Created using Figma</desc>
<g id="Canvas" transform="translate(-1881 26)">
<g id="webdesign">
<g id="Ellipse">
<use xlink:href="#path0_fill" transform="translate(1881 -26)" fill="url(#paint0_radial)"/>
</g>
<g id="Rectangle 2" filter="url(#filter0_d)">
<use xlink:href="#path1_fill" transform="matrix(0.898875 -0.438205 0.438126 0.898913 1904 111.844)" fill="#B0D2FF"/>
</g>
<g id="Rectangle 2.1" filter="url(#filter1_ddd)">
<use xlink:href="#path2_fill" transform="matrix(0.898875 -0.438205 0.438126 0.898913 1916.73 108.166)" fill="#FFFFFF"/>
</g>
<g id="menu">
<g id="Ellipse" filter="url(#filter2_d)">
<use xlink:href="#path3_fill" transform="translate(1926 106)" fill="#EB5757"/>
</g>
<g id="Ellipse" filter="url(#filter3_d)">
<use xlink:href="#path3_fill" transform="translate(1932 103)" fill="#F2C94C"/>
</g>
<g id="Ellipse" filter="url(#filter4_d)">
<use xlink:href="#path3_fill" transform="translate(1938 100)" fill="#6FCF97"/>
</g>
</g>
<g id="side">
<g id="Rectangle 2.2" filter="url(#filter5_ddd)">
<use xlink:href="#path4_fill" transform="matrix(0.898875 -0.438205 0.438126 0.898913 1924 110.498)" fill="url(#paint6_linear)"/>
</g>
<g id="Rectangle 3" filter="url(#filter6_dd)">
<use xlink:href="#path5_fill" transform="matrix(0.898875 -0.438205 0.438126 0.898913 1936.76 114.413)" fill="#D65161"/>
</g>
<g id="Rectangle 3.1" filter="url(#filter7_dd)">
<use xlink:href="#path6_fill" transform="matrix(0.898875 -0.438205 0.438126 0.898913 1940.22 121.953)" fill="#D65161"/>
</g>
<g id="Rectangle 3.2" filter="url(#filter8_dd)">
<use xlink:href="#path7_fill" transform="matrix(0.898875 -0.438205 0.438126 0.898913 1943.64 129.62)" fill="#D65161"/>
</g>
<g id="Rectangle 3.4" filter="url(#filter9_dd)">
<use xlink:href="#path7_fill" transform="matrix(0.898875 -0.438205 0.438126 0.898913 1948.9 140.673)" fill="#D65161"/>
</g>
<g id="Rectangle 3.5" filter="url(#filter10_dd)">
<use xlink:href="#path6_fill" transform="matrix(0.898875 -0.438205 0.438126 0.898913 1952.45 147.843)" fill="#D65161"/>
</g>
<g id="Rectangle 3.6" filter="url(#filter11_dd)">
<use xlink:href="#path7_fill" transform="matrix(0.898875 -0.438205 0.438126 0.898913 1956.13 154.497)" fill="#D65161"/>
</g>
<g id="Rectangle 3.7" filter="url(#filter12_dd)">
<use xlink:href="#path7_fill" transform="matrix(0.898875 -0.438205 0.438126 0.898913 1962.73 165.493)" fill="#D65161"/>
</g>
<g id="Rectangle 3.3" filter="url(#filter13_dd)">
<use xlink:href="#path8_fill" transform="matrix(0.898875 -0.438205 0.438126 0.898913 1947.95 133.761)" fill="#D65161"/>
</g>
<g id="Rectangle 3.8" filter="url(#filter14_dd)">
<use xlink:href="#path8_fill" transform="matrix(0.898875 -0.438205 0.438126 0.898913 1960.1 157.324)" fill="#D65161"/>
</g>
<g id="Rectangle 4" filter="url(#filter15_dd)">
<use xlink:href="#path9_fill" transform="matrix(0.898875 -0.438205 0.438126 0.898913 1987.96 230.284)" fill="#66F274"/>
</g>
</g>
<g id="Your">
<use xlink:href="#path10_fill" transform="matrix(0.903985 -0.427565 0.427565 0.903985 1986 72.3571)" fill="#747474"/>
</g>
<g id="Brand">
<use xlink:href="#path11_fill" transform="matrix(0.903985 -0.427565 0.427565 0.903985 2009 63.1096)" fill="#747474"/>
</g>
<g id="Rectangle 2.18" filter="url(#filter16_dd)">
<use xlink:href="#path12_fill" transform="matrix(0.902025 -0.431684 0.431684 0.902025 1994 88.387)" fill="url(#paint19_linear)"/>
</g>
<g id="Rectangle 2.10">
<use xlink:href="#path13_fill" transform="matrix(0.902025 -0.431684 0.431684 0.902025 2023 146.436)" fill="#C4C4C4"/>
</g>
<g id="Rectangle 2.12">
<use xlink:href="#path14_fill" transform="matrix(0.902025 -0.431684 0.431684 0.902025 2046 125.387)" fill="#C4C4C4"/>
</g>
<g id="Rectangle 2.13">
<use xlink:href="#path15_fill" transform="matrix(0.902025 -0.431684 0.431684 0.902025 2028 155.436)" fill="#C4C4C4"/>
</g>
<g id="Rectangle 2.14">
<use xlink:href="#path15_fill" transform="matrix(0.902025 -0.431684 0.431684 0.902025 2041 181.436)" fill="#C4C4C4"/>
</g>
<g id="Rectangle 2.15">
<use xlink:href="#path16_fill" transform="matrix(0.902025 -0.431684 0.431684 0.902025 2116 136.387)" fill="#C4C4C4"/>
</g>
<g id="Rectangle 2.16">
<use xlink:href="#path16_fill" transform="matrix(0.902025 -0.431684 0.431684 0.902025 2064 160.387)" fill="#C4C4C4"/>
</g>
<g id="Rectangle 2.17">
<use xlink:href="#path16_fill" transform="matrix(0.902025 -0.431684 0.431684 0.902025 2077 143.387)" fill="#C4C4C4"/>
</g>
<g id="Vector" filter="url(#filter17_dd)">
<use xlink:href="#path17_stroke" transform="translate(2010 38)" fill="#6FCF97"/>
</g>
</g>
</g>
<defs>
<filter id="filter0_d" filterUnits="userSpaceOnUse" x="1903" y="5" width="301" height="274" color-interpolation-filters="sRGB">
<feFlood flood-opacity="0" result="BackgroundImageFix"/>
<feColorMatrix in="SourceAlpha" type="matrix" values="0 0 0 0 0 0 0 0 0 0 0 0 0 0 0 0 0 0 255 0"/>
<feOffset dx="-2" dy="5"/>
<feColorMatrix type="matrix" values="0 0 0 0 0.184314 0 0 0 0 0.501961 0 0 0 0 0.929412 0 0 0 0.61 0"/>
<feBlend mode="normal" in2="BackgroundImageFix" result="effect1_dropShadow"/>
<feBlend mode="normal" in="SourceGraphic" in2="effect1_dropShadow" result="shape"/>
</filter>
<filter id="filter1_ddd" filterUnits="userSpaceOnUse" x="1895" y="1" width="311" height="285" color-interpolation-filters="sRGB">
<feFlood flood-opacity="0" result="BackgroundImageFix"/>
<feColorMatrix in="SourceAlpha" type="matrix" values="0 0 0 0 0 0 0 0 0 0 0 0 0 0 0 0 0 0 255 0"/>
<feOffset dx="-7" dy="10"/>
<feGaussianBlur stdDeviation="8"/>
<feColorMatrix type="matrix" values="0 0 0 0 0 0 0 0 0 0 0 0 0 0 0 0 0 0 0.23 0"/>
<feBlend mode="normal" in2="BackgroundImageFix" result="effect1_dropShadow"/>
<feColorMatrix in="SourceAlpha" type="matrix" values="0 0 0 0 0 0 0 0 0 0 0 0 0 0 0 0 0 0 255 0"/>
<feOffset dx="-1" dy="6"/>
<feColorMatrix type="matrix" values="0 0 0 0 0.2 0 0 0 0 0.2 0 0 0 0 0.2 0 0 0 0.09 0"/>
<feBlend mode="normal" in2="effect1_dropShadow" result="effect2_dropShadow"/>
<feColorMatrix in="SourceAlpha" type="matrix" values="0 0 0 0 0 0 0 0 0 0 0 0 0 0 0 0 0 0 255 0"/>
<feOffset dx="-2" dy="4"/>
<feGaussianBlur stdDeviation="6"/>
<feColorMatrix type="matrix" values="0 0 0 0 0.38 0 0 0 0 0.3534 0 0 0 0 0.3534 0 0 0 0.08 0"/>
<feBlend mode="normal" in2="effect2_dropShadow" result="effect3_dropShadow"/>
<feBlend mode="normal" in="SourceGraphic" in2="effect3_dropShadow" result="shape"/>
</filter>
<filter id="filter2_d" filterUnits="userSpaceOnUse" x="1924" y="105" width="7" height="7" color-interpolation-filters="sRGB">
<feFlood flood-opacity="0" result="BackgroundImageFix"/>
<feColorMatrix in="SourceAlpha" type="matrix" values="0 0 0 0 0 0 0 0 0 0 0 0 0 0 0 0 0 0 255 0"/>
<feOffset dx="0" dy="1"/>
<feGaussianBlur stdDeviation="1"/>
<feColorMatrix type="matrix" values="0 0 0 0 0 0 0 0 0 0 0 0 0 0 0 0 0 0 0.16 0"/>
<feBlend mode="normal" in2="BackgroundImageFix" result="effect1_dropShadow"/>
<feBlend mode="normal" in="SourceGraphic" in2="effect1_dropShadow" result="shape"/>
</filter>
<filter id="filter3_d" filterUnits="userSpaceOnUse" x="1930" y="102" width="7" height="7" color-interpolation-filters="sRGB">
<feFlood flood-opacity="0" result="BackgroundImageFix"/>
<feColorMatrix in="SourceAlpha" type="matrix" values="0 0 0 0 0 0 0 0 0 0 0 0 0 0 0 0 0 0 255 0"/>
<feOffset dx="0" dy="1"/>
<feGaussianBlur stdDeviation="1"/>
<feColorMatrix type="matrix" values="0 0 0 0 0 0 0 0 0 0 0 0 0 0 0 0 0 0 0.16 0"/>
<feBlend mode="normal" in2="BackgroundImageFix" result="effect1_dropShadow"/>
<feBlend mode="normal" in="SourceGraphic" in2="effect1_dropShadow" result="shape"/>
</filter>
<filter id="filter4_d" filterUnits="userSpaceOnUse" x="1936" y="99" width="7" height="7" color-interpolation-filters="sRGB">
<feFlood flood-opacity="0" result="BackgroundImageFix"/>
<feColorMatrix in="SourceAlpha" type="matrix" values="0 0 0 0 0 0 0 0 0 0 0 0 0 0 0 0 0 0 255 0"/>
<feOffset dx="0" dy="1"/>
<feGaussianBlur stdDeviation="1"/>
<feColorMatrix type="matrix" values="0 0 0 0 0 0 0 0 0 0 0 0 0 0 0 0 0 0 0.16 0"/>
<feBlend mode="normal" in2="BackgroundImageFix" result="effect1_dropShadow"/>
<feBlend mode="normal" in="SourceGraphic" in2="effect1_dropShadow" result="shape"/>
</filter>
<filter id="filter5_ddd" filterUnits="userSpaceOnUse" x="1902" y="77" width="159" height="203" color-interpolation-filters="sRGB">
<feFlood flood-opacity="0" result="BackgroundImageFix"/>
<feColorMatrix in="SourceAlpha" type="matrix" values="0 0 0 0 0 0 0 0 0 0 0 0 0 0 0 0 0 0 255 0"/>
<feOffset dx="-7" dy="10"/>
<feGaussianBlur stdDeviation="8"/>
<feColorMatrix type="matrix" values="0 0 0 0 0 0 0 0 0 0 0 0 0 0 0 0 0 0 0.23 0"/>
<feBlend mode="normal" in2="BackgroundImageFix" result="effect1_dropShadow"/>
<feColorMatrix in="SourceAlpha" type="matrix" values="0 0 0 0 0 0 0 0 0 0 0 0 0 0 0 0 0 0 255 0"/>
<feOffset dx="-1" dy="6"/>
<feColorMatrix type="matrix" values="0 0 0 0 0.2 0 0 0 0 0.2 0 0 0 0 0.2 0 0 0 0.09 0"/>
<feBlend mode="normal" in2="effect1_dropShadow" result="effect2_dropShadow"/>
<feColorMatrix in="SourceAlpha" type="matrix" values="0 0 0 0 0 0 0 0 0 0 0 0 0 0 0 0 0 0 255 0"/>
<feOffset dx="0" dy="1"/>
<feColorMatrix type="matrix" values="0 0 0 0 0.921569 0 0 0 0 0.341176 0 0 0 0 0.341176 0 0 0 1 0"/>
<feBlend mode="normal" in2="effect2_dropShadow" result="effect3_dropShadow"/>
<feBlend mode="normal" in="SourceGraphic" in2="effect3_dropShadow" result="shape"/>
</filter>
<filter id="filter6_dd" filterUnits="userSpaceOnUse" x="1935" y="92" width="50" height="29" color-interpolation-filters="sRGB">
<feFlood flood-opacity="0" result="BackgroundImageFix"/>
<feColorMatrix in="SourceAlpha" type="matrix" values="0 0 0 0 0 0 0 0 0 0 0 0 0 0 0 0 0 0 255 0"/>
<feOffset dx="0" dy="1"/>
<feColorMatrix type="matrix" values="0 0 0 0 0.77 0 0 0 0 0.1078 0 0 0 0 0.1078 0 0 0 1 0"/>
<feBlend mode="normal" in2="BackgroundImageFix" result="effect1_dropShadow"/>
<feColorMatrix in="SourceAlpha" type="matrix" values="0 0 0 0 0 0 0 0 0 0 0 0 0 0 0 0 0 0 255 0"/>
<feOffset dx="0" dy="2"/>
<feGaussianBlur stdDeviation="0.5"/>
<feColorMatrix type="matrix" values="0 0 0 0 0 0 0 0 0 0 0 0 0 0 0 0 0 0 0.13 0"/>
<feBlend mode="normal" in2="effect1_dropShadow" result="effect2_dropShadow"/>
<feBlend mode="normal" in="SourceGraphic" in2="effect2_dropShadow" result="shape"/>
</filter>
<filter id="filter7_dd" filterUnits="userSpaceOnUse" x="1939" y="106" width="37" height="23" color-interpolation-filters="sRGB">
<feFlood flood-opacity="0" result="BackgroundImageFix"/>
<feColorMatrix in="SourceAlpha" type="matrix" values="0 0 0 0 0 0 0 0 0 0 0 0 0 0 0 0 0 0 255 0"/>
<feOffset dx="0" dy="1"/>
<feColorMatrix type="matrix" values="0 0 0 0 0.77 0 0 0 0 0.1078 0 0 0 0 0.1078 0 0 0 1 0"/>
<feBlend mode="normal" in2="BackgroundImageFix" result="effect1_dropShadow"/>
<feColorMatrix in="SourceAlpha" type="matrix" values="0 0 0 0 0 0 0 0 0 0 0 0 0 0 0 0 0 0 255 0"/>
<feOffset dx="0" dy="2"/>
<feGaussianBlur stdDeviation="0.5"/>
<feColorMatrix type="matrix" values="0 0 0 0 0 0 0 0 0 0 0 0 0 0 0 0 0 0 0.13 0"/>
<feBlend mode="normal" in2="effect1_dropShadow" result="effect2_dropShadow"/>
<feBlend mode="normal" in="SourceGraphic" in2="effect2_dropShadow" result="shape"/>
</filter>
<filter id="filter8_dd" filterUnits="userSpaceOnUse" x="1942" y="110" width="45" height="27" color-interpolation-filters="sRGB">
<feFlood flood-opacity="0" result="BackgroundImageFix"/>
<feColorMatrix in="SourceAlpha" type="matrix" values="0 0 0 0 0 0 0 0 0 0 0 0 0 0 0 0 0 0 255 0"/>
<feOffset dx="0" dy="1"/>
<feColorMatrix type="matrix" values="0 0 0 0 0.77 0 0 0 0 0.1078 0 0 0 0 0.1078 0 0 0 1 0"/>
<feBlend mode="normal" in2="BackgroundImageFix" result="effect1_dropShadow"/>
<feColorMatrix in="SourceAlpha" type="matrix" values="0 0 0 0 0 0 0 0 0 0 0 0 0 0 0 0 0 0 255 0"/>
<feOffset dx="0" dy="2"/>
<feGaussianBlur stdDeviation="0.5"/>
<feColorMatrix type="matrix" values="0 0 0 0 0 0 0 0 0 0 0 0 0 0 0 0 0 0 0.13 0"/>
<feBlend mode="normal" in2="effect1_dropShadow" result="effect2_dropShadow"/>
<feBlend mode="normal" in="SourceGraphic" in2="effect2_dropShadow" result="shape"/>
</filter>
<filter id="filter9_dd" filterUnits="userSpaceOnUse" x="1947" y="121" width="45" height="27" color-interpolation-filters="sRGB">
<feFlood flood-opacity="0" result="BackgroundImageFix"/>
<feColorMatrix in="SourceAlpha" type="matrix" values="0 0 0 0 0 0 0 0 0 0 0 0 0 0 0 0 0 0 255 0"/>
<feOffset dx="0" dy="1"/>
<feColorMatrix type="matrix" values="0 0 0 0 0.77 0 0 0 0 0.1078 0 0 0 0 0.1078 0 0 0 1 0"/>
<feBlend mode="normal" in2="BackgroundImageFix" result="effect1_dropShadow"/>
<feColorMatrix in="SourceAlpha" type="matrix" values="0 0 0 0 0 0 0 0 0 0 0 0 0 0 0 0 0 0 255 0"/>
<feOffset dx="0" dy="2"/>
<feGaussianBlur stdDeviation="0.5"/>
<feColorMatrix type="matrix" values="0 0 0 0 0 0 0 0 0 0 0 0 0 0 0 0 0 0 0.13 0"/>
<feBlend mode="normal" in2="effect1_dropShadow" result="effect2_dropShadow"/>
<feBlend mode="normal" in="SourceGraphic" in2="effect2_dropShadow" result="shape"/>
</filter>
<filter id="filter10_dd" filterUnits="userSpaceOnUse" x="1951" y="132" width="37" height="23" color-interpolation-filters="sRGB">
<feFlood flood-opacity="0" result="BackgroundImageFix"/>
<feColorMatrix in="SourceAlpha" type="matrix" values="0 0 0 0 0 0 0 0 0 0 0 0 0 0 0 0 0 0 255 0"/>
<feOffset dx="0" dy="1"/>
<feColorMatrix type="matrix" values="0 0 0 0 0.77 0 0 0 0 0.1078 0 0 0 0 0.1078 0 0 0 1 0"/>
<feBlend mode="normal" in2="BackgroundImageFix" result="effect1_dropShadow"/>
<feColorMatrix in="SourceAlpha" type="matrix" values="0 0 0 0 0 0 0 0 0 0 0 0 0 0 0 0 0 0 255 0"/>
<feOffset dx="0" dy="2"/>
<feGaussianBlur stdDeviation="0.5"/>
<feColorMatrix type="matrix" values="0 0 0 0 0 0 0 0 0 0 0 0 0 0 0 0 0 0 0.13 0"/>
<feBlend mode="normal" in2="effect1_dropShadow" result="effect2_dropShadow"/>
<feBlend mode="normal" in="SourceGraphic" in2="effect2_dropShadow" result="shape"/>
</filter>
<filter id="filter11_dd" filterUnits="userSpaceOnUse" x="1955" y="134" width="45" height="27" color-interpolation-filters="sRGB">
<feFlood flood-opacity="0" result="BackgroundImageFix"/>
<feColorMatrix in="SourceAlpha" type="matrix" values="0 0 0 0 0 0 0 0 0 0 0 0 0 0 0 0 0 0 255 0"/>
<feOffset dx="0" dy="1"/>
<feColorMatrix type="matrix" values="0 0 0 0 0.77 0 0 0 0 0.1078 0 0 0 0 0.1078 0 0 0 1 0"/>
<feBlend mode="normal" in2="BackgroundImageFix" result="effect1_dropShadow"/>
<feColorMatrix in="SourceAlpha" type="matrix" values="0 0 0 0 0 0 0 0 0 0 0 0 0 0 0 0 0 0 255 0"/>
<feOffset dx="0" dy="2"/>
<feGaussianBlur stdDeviation="0.5"/>
<feColorMatrix type="matrix" values="0 0 0 0 0 0 0 0 0 0 0 0 0 0 0 0 0 0 0.13 0"/>
<feBlend mode="normal" in2="effect1_dropShadow" result="effect2_dropShadow"/>
<feBlend mode="normal" in="SourceGraphic" in2="effect2_dropShadow" result="shape"/>
</filter>
<filter id="filter12_dd" filterUnits="userSpaceOnUse" x="1961" y="145" width="45" height="27" color-interpolation-filters="sRGB">
<feFlood flood-opacity="0" result="BackgroundImageFix"/>
<feColorMatrix in="SourceAlpha" type="matrix" values="0 0 0 0 0 0 0 0 0 0 0 0 0 0 0 0 0 0 255 0"/>
<feOffset dx="0" dy="1"/>
<feColorMatrix type="matrix" values="0 0 0 0 0.77 0 0 0 0 0.1078 0 0 0 0 0.1078 0 0 0 1 0"/>
<feBlend mode="normal" in2="BackgroundImageFix" result="effect1_dropShadow"/>
<feColorMatrix in="SourceAlpha" type="matrix" values="0 0 0 0 0 0 0 0 0 0 0 0 0 0 0 0 0 0 255 0"/>
<feOffset dx="0" dy="2"/>
<feGaussianBlur stdDeviation="0.5"/>
<feColorMatrix type="matrix" values="0 0 0 0 0 0 0 0 0 0 0 0 0 0 0 0 0 0 0.13 0"/>
<feBlend mode="normal" in2="effect1_dropShadow" result="effect2_dropShadow"/>
<feBlend mode="normal" in="SourceGraphic" in2="effect2_dropShadow" result="shape"/>
</filter>
<filter id="filter13_dd" filterUnits="userSpaceOnUse" x="1946" y="111" width="51" height="32" color-interpolation-filters="sRGB">
<feFlood flood-opacity="0" result="BackgroundImageFix"/>
<feColorMatrix in="SourceAlpha" type="matrix" values="0 0 0 0 0 0 0 0 0 0 0 0 0 0 0 0 0 0 255 0"/>
<feOffset dx="0" dy="2"/>
<feGaussianBlur stdDeviation="0.5"/>
<feColorMatrix type="matrix" values="0 0 0 0 0.77 0 0 0 0 0.1078 0 0 0 0 0.1078 0 0 0 1 0"/>
<feBlend mode="normal" in2="BackgroundImageFix" result="effect1_dropShadow"/>
<feColorMatrix in="SourceAlpha" type="matrix" values="0 0 0 0 0 0 0 0 0 0 0 0 0 0 0 0 0 0 255 0"/>
<feOffset dx="0" dy="4"/>
<feGaussianBlur stdDeviation="0.5"/>
<feColorMatrix type="matrix" values="0 0 0 0 0 0 0 0 0 0 0 0 0 0 0 0 0 0 0.13 0"/>
<feBlend mode="normal" in2="effect1_dropShadow" result="effect2_dropShadow"/>
<feBlend mode="normal" in="SourceGraphic" in2="effect2_dropShadow" result="shape"/>
</filter>
<filter id="filter14_dd" filterUnits="userSpaceOnUse" x="1959" y="135" width="50" height="31" color-interpolation-filters="sRGB">
<feFlood flood-opacity="0" result="BackgroundImageFix"/>
<feColorMatrix in="SourceAlpha" type="matrix" values="0 0 0 0 0 0 0 0 0 0 0 0 0 0 0 0 0 0 255 0"/>
<feOffset dx="0" dy="2"/>
<feGaussianBlur stdDeviation="0.5"/>
<feColorMatrix type="matrix" values="0 0 0 0 0.77 0 0 0 0 0.1078 0 0 0 0 0.1078 0 0 0 1 0"/>
<feBlend mode="normal" in2="BackgroundImageFix" result="effect1_dropShadow"/>
<feColorMatrix in="SourceAlpha" type="matrix" values="0 0 0 0 0 0 0 0 0 0 0 0 0 0 0 0 0 0 255 0"/>
<feOffset dx="0" dy="4"/>
<feGaussianBlur stdDeviation="0.5"/>
<feColorMatrix type="matrix" values="0 0 0 0 0 0 0 0 0 0 0 0 0 0 0 0 0 0 0.13 0"/>
<feBlend mode="normal" in2="effect1_dropShadow" result="effect2_dropShadow"/>
<feBlend mode="normal" in="SourceGraphic" in2="effect2_dropShadow" result="shape"/>
</filter>
<filter id="filter15_dd" filterUnits="userSpaceOnUse" x="1988" y="206" width="57" height="40" color-interpolation-filters="sRGB">
<feFlood flood-opacity="0" result="BackgroundImageFix"/>
<feColorMatrix in="SourceAlpha" type="matrix" values="0 0 0 0 0 0 0 0 0 0 0 0 0 0 0 0 0 0 255 0"/>
<feOffset dx="0" dy="1"/>
<feColorMatrix type="matrix" values="0 0 0 0 0.129412 0 0 0 0 0.588235 0 0 0 0 0.32549 0 0 0 1 0"/>
<feBlend mode="normal" in2="BackgroundImageFix" result="effect1_dropShadow"/>
<feColorMatrix in="SourceAlpha" type="matrix" values="0 0 0 0 0 0 0 0 0 0 0 0 0 0 0 0 0 0 255 0"/>
<feOffset dx="0" dy="2"/>
<feGaussianBlur stdDeviation="0.5"/>
<feColorMatrix type="matrix" values="0 0 0 0 0 0 0 0 0 0 0 0 0 0 0 0 0 0 0.18 0"/>
<feBlend mode="normal" in2="effect1_dropShadow" result="effect2_dropShadow"/>
<feBlend mode="normal" in="SourceGraphic" in2="effect2_dropShadow" result="shape"/>
</filter>
<filter id="filter16_dd" filterUnits="userSpaceOnUse" x="1990" y="25" width="161" height="118" color-interpolation-filters="sRGB">
<feFlood flood-opacity="0" result="BackgroundImageFix"/>
<feColorMatrix in="SourceAlpha" type="matrix" values="0 0 0 0 0 0 0 0 0 0 0 0 0 0 0 0 0 0 255 0"/>
<feOffset dx="-1" dy="2"/>
<feColorMatrix type="matrix" values="0 0 0 0 0.607843 0 0 0 0 0.317647 0 0 0 0 0.878431 0 0 0 0.49 0"/>
<feBlend mode="normal" in2="BackgroundImageFix" result="effect1_dropShadow"/>
<feColorMatrix in="SourceAlpha" type="matrix" values="0 0 0 0 0 0 0 0 0 0 0 0 0 0 0 0 0 0 255 0"/>
<feOffset dx="-1" dy="5"/>
<feGaussianBlur stdDeviation="1.5"/>
<feColorMatrix type="matrix" values="0 0 0 0 0 0 0 0 0 0 0 0 0 0 0 0 0 0 0.2 0"/>
<feBlend mode="normal" in2="effect1_dropShadow" result="effect2_dropShadow"/>
<feBlend mode="normal" in="SourceGraphic" in2="effect2_dropShadow" result="shape"/>
</filter>
<filter id="filter17_dd" filterUnits="userSpaceOnUse" x="2003" y="35" width="137" height="86" color-interpolation-filters="sRGB">
<feFlood flood-opacity="0" result="BackgroundImageFix"/>
<feColorMatrix in="SourceAlpha" type="matrix" values="0 0 0 0 0 0 0 0 0 0 0 0 0 0 0 0 0 0 255 0"/>
<feOffset dx="0" dy="4"/>
<feGaussianBlur stdDeviation="2"/>
<feColorMatrix type="matrix" values="0 0 0 0 0 0 0 0 0 0 0 0 0 0 0 0 0 0 0.25 0"/>
<feBlend mode="normal" in2="BackgroundImageFix" result="effect1_dropShadow"/>
<feColorMatrix in="SourceAlpha" type="matrix" values="0 0 0 0 0 0 0 0 0 0 0 0 0 0 0 0 0 0 255 0"/>
<feOffset dx="0" dy="2"/>
<feColorMatrix type="matrix" values="0 0 0 0 0.129412 0 0 0 0 0.588235 0 0 0 0 0.32549 0 0 0 0.38 0"/>
<feBlend mode="normal" in2="effect1_dropShadow" result="effect2_dropShadow"/>
<feBlend mode="normal" in="SourceGraphic" in2="effect2_dropShadow" result="shape"/>
</filter>
<radialGradient id="paint0_radial" cx="0.5" cy="0.5" r="0.5" gradientUnits="userSpaceOnUse" gradientTransform="matrix(-198.5 -358 -432.004 239.533 486.002 232.234)">
<stop offset="0.192991" stop-color="#2F80ED"/>
<stop offset="1" stop-color="#00FFF0"/>
</radialGradient>
<linearGradient id="paint6_linear" x1="0" y1="0" x2="1" y2="0" gradientUnits="userSpaceOnUse" gradientTransform="matrix(3.98215e-15 160.8 -65.0335 9.84616e-15 65.0335 -9.84616e-15)">
<stop offset="0" stop-color="#FF576B"/>
<stop offset="1" stop-color="#FA1430"/>
</linearGradient>
<linearGradient id="paint19_linear" x1="0" y1="0" x2="1" y2="0" gradientUnits="userSpaceOnUse" gradientTransform="matrix(9.02072e-15 51.2276 -147.32 3.13678e-15 147.32 -3.13678e-15)">
<stop offset="0" stop-color="#C275FF"/>
<stop offset="1" stop-color="#5F109E"/>
</linearGradient>
<path id="path0_fill" d="M 347 173.5C 347 269.321 269.321 347 173.5 347C 77.6786 347 0 269.321 0 173.5C 0 77.6786 77.6786 0 173.5 0C 269.321 0 347 77.6786 347 173.5Z"/>
<path id="path1_fill" d="M 0 4.99999C 0 2.23857 2.23858 0 5 0L 242.138 0C 244.899 0 247.138 2.23858 247.138 5L 247.138 176.194C 247.138 178.955 244.899 181.194 242.138 181.194L 5 181.194C 2.23857 181.194 0 178.955 0 176.194L 0 4.99999Z"/>
<path id="path2_fill" d="M -6.38613e-13 4C -6.47095e-13 1.79086 1.79086 0 4 0L 225.037 0C 227.246 0 229.037 1.79086 229.037 4L 229.037 166.336C 229.037 168.545 227.246 170.336 225.037 170.336L 4 170.336C 1.79086 170.336 -6.87565e-15 168.545 -1.53572e-14 166.336L -6.38613e-13 4Z"/>
<path id="path3_fill" d="M 3 1.5C 3 2.32843 2.32843 3 1.5 3C 0.671573 3 0 2.32843 0 1.5C 0 0.671573 0.671573 0 1.5 0C 2.32843 0 3 0.671573 3 1.5Z"/>
<path id="path4_fill" d="M 0 4C 0 1.79086 1.79086 0 4 0L 61.0335 0C 63.2427 0 65.0335 1.79086 65.0335 4L 65.0335 156.8C 65.0335 159.009 63.2427 160.8 61.0335 160.8L 4 160.8C 1.79086 160.8 0 159.009 0 156.8L 0 4Z"/>
<path id="path5_fill" d="M 0 0L 50.0119 0L 50.0119 3.88697L 0 3.88697L 0 0Z"/>
<path id="path6_fill" d="M 0 0L 36.1049 0L 36.1049 3.88697L 0 3.88697L 0 0Z"/>
<path id="path7_fill" d="M 0 0L 44.762 0L 44.762 3.88697L 0 3.88697L 0 0Z"/>
<path id="path8_fill" d="M 0 0L 50.8105 0L 50.8105 3.88697L 0 3.88697L 0 0Z"/>
<path id="path9_fill" d="M 0 4C 0 1.79086 1.79086 0 4 0L 52.4566 0C 54.6658 0 56.4566 1.79086 56.4566 4L 56.4566 10.6212C 56.4566 12.8303 54.6657 14.6212 52.4566 14.6212L 4 14.6212C 1.79086 14.6212 0 12.8303 0 10.6212L 0 4Z"/>
<path id="path10_fill" d="M 6.156 4.54C 6.516 4.54 6.816 4.528 7.056 4.504L 7.056 4.744C 6.896 4.784 6.74 4.888 6.588 5.056C 6.436 5.216 6.272 5.468 6.096 5.812L 4.212 9.544L 4.212 11.728C 4.212 12.032 4.236 12.252 4.284 12.388C 4.332 12.524 4.42 12.616 4.548 12.664C 4.684 12.712 4.896 12.744 5.184 12.76L 5.184 13C 4.816 12.976 4.308 12.964 3.66 12.964C 2.972 12.964 2.46 12.976 2.124 13L 2.124 12.76C 2.412 12.744 2.62 12.712 2.748 12.664C 2.884 12.616 2.976 12.524 3.024 12.388C 3.072 12.252 3.096 12.032 3.096 11.728L 3.096 9.928L 0.66 5.428C 0.516 5.164 0.388 4.988 0.276 4.9C 0.172 4.804 0.068 4.756 -0.036 4.756L -0.036 4.504C 0.276 4.528 0.628 4.54 1.02 4.54C 1.796 4.54 2.356 4.528 2.7 4.504L 2.7 4.756C 2.14 4.756 1.86 4.908 1.86 5.212C 1.86 5.332 1.9 5.472 1.98 5.632L 3.972 9.46L 5.508 6.412C 5.724 5.988 5.832 5.644 5.832 5.38C 5.832 5.156 5.744 4.996 5.568 4.9C 5.392 4.804 5.128 4.752 4.776 4.744L 4.776 4.504C 5.232 4.528 5.692 4.54 6.156 4.54ZM 9.56925 6.652C 10.3853 6.652 11.0413 6.924 11.5372 7.468C 12.0412 8.004 12.2932 8.82 12.2932 9.916C 12.2932 11.012 12.0412 11.828 11.5372 12.364C 11.0413 12.9 10.3853 13.168 9.56925 13.168C 8.75325 13.168 8.09325 12.9 7.58925 12.364C 7.09325 11.828 6.84525 11.012 6.84525 9.916C 6.84525 8.82 7.09325 8.004 7.58925 7.468C 8.09325 6.924 8.75325 6.652 9.56925 6.652ZM 9.56925 6.892C 9.08925 6.892 8.70925 7.14 8.42925 7.636C 8.14925 8.124 8.00925 8.884 8.00925 9.916C 8.00925 10.948 8.14925 11.708 8.42925 12.196C 8.70925 12.684 9.08925 12.928 9.56925 12.928C 10.0493 12.928 10.4293 12.684 10.7092 12.196C 10.9892 11.708 11.1293 10.948 11.1293 9.916C 11.1293 8.884 10.9892 8.124 10.7092 7.636C 10.4293 7.14 10.0493 6.892 9.56925 6.892ZM 18.6515 11.704C 18.6515 12.072 18.7195 12.34 18.8555 12.508C 18.9915 12.676 19.2275 12.76 19.5635 12.76L 19.5635 13.012C 19.3155 12.988 19.0675 12.976 18.8195 12.976C 18.3155 12.976 17.8995 13.032 17.5715 13.144L 17.5715 11.728C 17.3795 12.224 17.1075 12.588 16.7555 12.82C 16.4035 13.052 16.0195 13.168 15.6035 13.168C 15.0595 13.168 14.6435 13.016 14.3555 12.712C 14.2115 12.552 14.1075 12.348 14.0435 12.1C 13.9875 11.852 13.9595 11.532 13.9595 11.14L 13.9595 8.128C 13.9595 7.76 13.8915 7.492 13.7555 7.324C 13.6195 7.156 13.3835 7.072 13.0475 7.072L 13.0475 6.82C 13.2955 6.844 13.5435 6.856 13.7915 6.856C 14.2955 6.856 14.7115 6.8 15.0395 6.688L 15.0395 11.404C 15.0395 11.708 15.0555 11.956 15.0875 12.148C 15.1275 12.332 15.2115 12.484 15.3395 12.604C 15.4755 12.724 15.6795 12.784 15.9515 12.784C 16.2555 12.784 16.5315 12.688 16.7795 12.496C 17.0275 12.304 17.2195 12.044 17.3555 11.716C 17.4995 11.38 17.5715 11.012 17.5715 10.612L 17.5715 8.128C 17.5715 7.76 17.5035 7.492 17.3675 7.324C 17.2315 7.156 16.9955 7.072 16.6595 7.072L 16.6595 6.82C 16.9075 6.844 17.1555 6.856 17.4035 6.856C 17.9075 6.856 18.3235 6.8 18.6515 6.688L 18.6515 11.704ZM 23.9081 6.652C 24.2281 6.652 24.4881 6.744 24.6881 6.928C 24.8961 7.112 25.0001 7.336 25.0001 7.6C 25.0001 7.808 24.9361 7.988 24.8081 8.14C 24.6881 8.284 24.5241 8.356 24.3161 8.356C 24.1401 8.356 23.9881 8.3 23.8601 8.188C 23.7401 8.076 23.6801 7.924 23.6801 7.732C 23.6801 7.468 23.8161 7.252 24.0881 7.084C 24.0321 7.004 23.9481 6.964 23.8361 6.964C 23.5241 6.964 23.2401 7.088 22.9841 7.336C 22.7281 7.576 22.5281 7.872 22.3841 8.224C 22.2401 8.576 22.1681 8.908 22.1681 9.22L 22.1681 11.764C 22.1681 12.132 22.2721 12.388 22.4801 12.532C 22.6961 12.676 23.0161 12.748 23.4401 12.748L 23.4401 13L 23.1521 12.988C 22.3361 12.964 21.8161 12.952 21.5921 12.952C 21.3841 12.952 20.9121 12.968 20.1761 13L 20.1761 12.748C 20.5121 12.748 20.7481 12.688 20.8841 12.568C 21.0201 12.44 21.0881 12.212 21.0881 11.884L 21.0881 8.128C 21.0881 7.76 21.0201 7.492 20.8841 7.324C 20.7481 7.156 20.5121 7.072 20.1761 7.072L 20.1761 6.82C 20.4321 6.844 20.6801 6.856 20.9201 6.856C 21.4241 6.856 21.8401 6.8 22.1681 6.688L 22.1681 8.188C 22.3121 7.788 22.5401 7.432 22.8521 7.12C 23.1721 6.808 23.5241 6.652 23.9081 6.652Z"/>
<path id="path11_fill" d="M 4.254 10.62C 4.542 10.62 4.778 10.586 4.962 10.518C 5.15 10.446 5.3 10.352 5.412 10.236C 5.524 10.12 5.602 9.988 5.646 9.84C 5.69 9.688 5.712 9.532 5.712 9.372C 5.712 9.196 5.686 9.038 5.634 8.898C 5.582 8.758 5.498 8.64 5.382 8.544C 5.266 8.444 5.114 8.368 4.926 8.316C 4.742 8.264 4.514 8.238 4.242 8.238L 2.712 8.238L 2.712 10.62L 4.254 10.62ZM 2.712 4.662L 2.712 7.014L 3.894 7.014C 4.146 7.014 4.37 6.994 4.566 6.954C 4.762 6.91 4.926 6.842 5.058 6.75C 5.19 6.658 5.29 6.538 5.358 6.39C 5.43 6.238 5.466 6.056 5.466 5.844C 5.466 5.628 5.436 5.444 5.376 5.292C 5.32 5.14 5.232 5.018 5.112 4.926C 4.992 4.834 4.84 4.768 4.656 4.728C 4.472 4.684 4.254 4.662 4.002 4.662L 2.712 4.662ZM 4.002 3.294C 4.586 3.294 5.084 3.35 5.496 3.462C 5.912 3.57 6.25 3.726 6.51 3.93C 6.774 4.13 6.966 4.374 7.086 4.662C 7.206 4.95 7.266 5.272 7.266 5.628C 7.266 5.828 7.236 6.02 7.176 6.204C 7.12 6.388 7.03 6.562 6.906 6.726C 6.786 6.886 6.63 7.032 6.438 7.164C 6.246 7.296 6.018 7.408 5.754 7.5C 6.346 7.64 6.784 7.868 7.068 8.184C 7.352 8.5 7.494 8.91 7.494 9.414C 7.494 9.782 7.422 10.124 7.278 10.44C 7.138 10.756 6.932 11.03 6.66 11.262C 6.388 11.494 6.052 11.676 5.652 11.808C 5.256 11.936 4.8 12 4.284 12L 0.912 12L 0.912 3.294L 4.002 3.294ZM 10.0896 6.834C 10.2856 6.482 10.5116 6.204 10.7676 6C 11.0236 5.796 11.3236 5.694 11.6676 5.694C 11.9476 5.694 12.1756 5.76 12.3516 5.892L 12.2436 7.116C 12.2236 7.196 12.1916 7.252 12.1476 7.284C 12.1076 7.312 12.0516 7.326 11.9796 7.326C 11.9156 7.326 11.8236 7.318 11.7036 7.302C 11.5836 7.282 11.4716 7.272 11.3676 7.272C 11.2156 7.272 11.0796 7.294 10.9596 7.338C 10.8436 7.382 10.7396 7.444 10.6476 7.524C 10.5556 7.604 10.4716 7.702 10.3956 7.818C 10.3236 7.934 10.2556 8.066 10.1916 8.214L 10.1916 12L 8.53556 12L 8.53556 5.814L 9.51356 5.814C 9.68156 5.814 9.79756 5.844 9.86156 5.904C 9.92556 5.964 9.97156 6.068 9.99956 6.216L 10.0896 6.834ZM 16.2227 9.414C 15.8187 9.434 15.4827 9.47 15.2147 9.522C 14.9467 9.57 14.7327 9.634 14.5727 9.714C 14.4167 9.794 14.3047 9.886 14.2367 9.99C 14.1727 10.09 14.1407 10.2 14.1407 10.32C 14.1407 10.56 14.2067 10.73 14.3387 10.83C 14.4747 10.93 14.6627 10.98 14.9027 10.98C 15.1787 10.98 15.4167 10.932 15.6167 10.836C 15.8207 10.736 16.0227 10.582 16.2227 10.374L 16.2227 9.414ZM 12.8507 6.672C 13.2147 6.344 13.6167 6.1 14.0567 5.94C 14.4967 5.776 14.9727 5.694 15.4847 5.694C 15.8527 5.694 16.1807 5.754 16.4687 5.874C 16.7607 5.994 17.0067 6.162 17.2067 6.378C 17.4107 6.59 17.5667 6.844 17.6747 7.14C 17.7827 7.436 17.8367 7.76 17.8367 8.112L 17.8367 12L 17.0807 12C 16.9247 12 16.8047 11.978 16.7207 11.934C 16.6407 11.89 16.5747 11.798 16.5227 11.658L 16.3907 11.262C 16.2347 11.398 16.0827 11.518 15.9347 11.622C 15.7907 11.726 15.6407 11.814 15.4847 11.886C 15.3287 11.954 15.1607 12.006 14.9807 12.042C 14.8047 12.078 14.6067 12.096 14.3867 12.096C 14.1147 12.096 13.8667 12.06 13.6427 11.988C 13.4187 11.916 13.2247 11.81 13.0607 11.67C 12.9007 11.526 12.7767 11.348 12.6887 11.136C 12.6007 10.924 12.5567 10.68 12.5567 10.404C 12.5567 10.176 12.6147 9.948 12.7307 9.72C 12.8467 9.492 13.0447 9.286 13.3247 9.102C 13.6087 8.914 13.9847 8.76 14.4527 8.64C 14.9247 8.516 15.5147 8.446 16.2227 8.43L 16.2227 8.112C 16.2227 7.724 16.1407 7.44 15.9767 7.26C 15.8127 7.076 15.5767 6.984 15.2687 6.984C 15.0407 6.984 14.8507 7.012 14.6987 7.068C 14.5467 7.12 14.4127 7.178 14.2967 7.242C 14.1847 7.302 14.0787 7.36 13.9787 7.416C 13.8787 7.468 13.7627 7.494 13.6307 7.494C 13.5147 7.494 13.4167 7.466 13.3367 7.41C 13.2607 7.35 13.1967 7.28 13.1447 7.2L 12.8507 6.672ZM 20.6653 6.534C 20.7893 6.414 20.9173 6.304 21.0493 6.204C 21.1853 6.104 21.3273 6.018 21.4753 5.946C 21.6273 5.874 21.7893 5.818 21.9613 5.778C 22.1373 5.738 22.3273 5.718 22.5313 5.718C 22.8673 5.718 23.1653 5.776 23.4253 5.892C 23.6853 6.008 23.9033 6.17 24.0793 6.378C 24.2593 6.586 24.3933 6.834 24.4813 7.122C 24.5733 7.41 24.6193 7.726 24.6193 8.07L 24.6193 12L 22.9693 12L 22.9693 8.07C 22.9693 7.726 22.8893 7.46 22.7293 7.272C 22.5693 7.08 22.3333 6.984 22.0213 6.984C 21.7893 6.984 21.5713 7.034 21.3673 7.134C 21.1633 7.234 20.9693 7.374 20.7853 7.554L 20.7853 12L 19.1293 12L 19.1293 5.814L 20.1493 5.814C 20.3573 5.814 20.4953 5.91 20.5633 6.102L 20.6653 6.534ZM 29.7599 7.422C 29.6039 7.242 29.4339 7.116 29.2499 7.044C 29.0699 6.972 28.8779 6.936 28.6739 6.936C 28.4739 6.936 28.2919 6.974 28.1279 7.05C 27.9639 7.126 27.8219 7.246 27.7019 7.41C 27.5859 7.57 27.4959 7.776 27.4319 8.028C 27.3679 8.28 27.3359 8.58 27.3359 8.928C 27.3359 9.272 27.3619 9.564 27.4139 9.804C 27.4659 10.044 27.5399 10.238 27.6359 10.386C 27.7359 10.534 27.8559 10.642 27.9959 10.71C 28.1359 10.774 28.2919 10.806 28.4639 10.806C 28.7559 10.806 28.9999 10.748 29.1959 10.632C 29.3959 10.516 29.5839 10.352 29.7599 10.14L 29.7599 7.422ZM 31.4159 3.054L 31.4159 12L 30.3959 12C 30.1839 12 30.0479 11.904 29.9879 11.712L 29.8499 11.172C 29.7259 11.308 29.5939 11.432 29.4539 11.544C 29.3179 11.656 29.1699 11.754 29.0099 11.838C 28.8499 11.918 28.6779 11.98 28.4939 12.024C 28.3099 12.068 28.1099 12.09 27.8939 12.09C 27.5619 12.09 27.2579 12.02 26.9819 11.88C 26.7059 11.74 26.4659 11.536 26.2619 11.268C 26.0619 10.996 25.9059 10.664 25.7939 10.272C 25.6819 9.88 25.6259 9.432 25.6259 8.928C 25.6259 8.468 25.6879 8.04 25.8119 7.644C 25.9399 7.248 26.1199 6.906 26.3519 6.618C 26.5839 6.33 26.8639 6.104 27.1919 5.94C 27.5199 5.776 27.8839 5.694 28.2839 5.694C 28.6199 5.694 28.9019 5.744 29.1299 5.844C 29.3619 5.944 29.5719 6.08 29.7599 6.252L 29.7599 3.054L 31.4159 3.054Z"/>
<path id="path12_fill" d="M 0 1C 0 0.447717 0.447715 0 1 0L 146.32 0C 146.872 0 147.32 0.447715 147.32 1L 147.32 50.2276C 147.32 50.7799 146.872 51.2276 146.32 51.2276L 0.999998 51.2276C 0.447714 51.2276 0 50.7799 0 50.2276L 0 1Z"/>
<path id="path13_fill" d="M 0 0L 85.4077 0L 85.4077 5L 0 5L 0 0Z"/>
<path id="path14_fill" d="M 0 0L 107.444 0L 107.444 5L 0 5L 0 0Z"/>
<path id="path15_fill" d="M 0 0L 140 0L 140 5L 0 5L 0 0Z"/>
<path id="path16_fill" d="M 0 0L 47.2266 0L 47.2266 5L 0 5L 0 0Z"/>
<path id="path17_stroke" d="M 29.7834 59.6627L 28.5114 61.8149L 29.7834 59.6627ZM 2.30159 74.9761C 4.02166 70.8998 7.2799 65.6334 12.0121 62.3135C 16.43 59.1595 21.9052 57.9107 28.5114 61.8149L 31.0553 57.5104C 22.4992 52.4539 14.8876 54.1173 9.107 58.244C 3.64068 62.2047 -0.41155 68.5875 -2.30159 73.0239L 2.30159 74.9761ZM 28.5114 61.8149C 38.3943 67.6556 49.6007 70.3185 60.7672 65.9083C 71.8508 61.5308 82.2621 50.4249 91.1861 30.2054L 86.6118 28.1865C 77.9365 47.8425 68.2665 57.5706 58.9305 61.2578C 49.6772 64.9124 40.1255 62.8708 31.0553 57.5104L 28.5114 61.8149ZM 91.1861 30.2054C 95.5408 20.333 99.1047 13.8173 102.272 9.47664C 105.384 5.2027 107.818 3.47653 109.758 2.84117C 111.797 2.09174 113.493 2.48116 115.914 3.28164C 118.361 4.08051 121.158 5.35538 124.461 6.09887L 125.539 1.2163C 122.75 0.615666 120.188 -0.573694 117.474 -1.46898C 114.733 -2.36265 111.466 -2.89731 108.202 -1.91059C 104.84 -0.809791 101.633 1.86045 98.2301 6.53332C 94.8822 11.1395 91.0567 18.121 86.6118 28.1865L 91.1861 30.2054Z"/>
</defs>
</svg>
